G04 Layer: BottomSilkscreenLayer*
G04 EasyEDA v6.5.47, 2024-11-03 14:34:40*
G04 684bee94884246f2b67ba1c568fef4cc,02b1cd47abf14eeea88f237cf3128960,10*
G04 Gerber Generator version 0.2*
G04 Scale: 100 percent, Rotated: No, Reflected: No *
G04 Dimensions in millimeters *
G04 leading zeros omitted , absolute positions ,4 integer and 5 decimal *
%FSLAX45Y45*%
%MOMM*%

%ADD10C,0.0001*%

%LPD*%
G36*
X7160920Y14763343D02*
G01*
X7160920Y14727732D01*
X7377785Y14727732D01*
X7377785Y14546427D01*
X7196531Y14546427D01*
X7196531Y14727732D01*
X7160920Y14727732D01*
X7160920Y14510816D01*
X7413396Y14510816D01*
X7413396Y14763343D01*
G37*
G36*
X6837172Y14763343D02*
G01*
X6837172Y14688870D01*
X7015225Y14688870D01*
X7015225Y14656511D01*
X6982866Y14656511D01*
X6982866Y14688870D01*
X6944004Y14688870D01*
X6944004Y14653260D01*
X6979615Y14653260D01*
X6979615Y14617649D01*
X7015225Y14617649D01*
X7015225Y14582038D01*
X7054088Y14582038D01*
X7054088Y14546427D01*
X7089698Y14546427D01*
X7089698Y14510816D01*
X7054088Y14510816D01*
X7054088Y14546427D01*
X7015225Y14546427D01*
X7015225Y14475206D01*
X7089698Y14475206D01*
X7089698Y14439595D01*
X7196531Y14439595D01*
X7196531Y14403984D01*
X7125309Y14403984D01*
X7125309Y14439595D01*
X7089698Y14439595D01*
X7089698Y14403984D01*
X7054088Y14403984D01*
X7054088Y14475206D01*
X6982866Y14475206D01*
X6982866Y14546427D01*
X6944004Y14546427D01*
X6944004Y14510816D01*
X6911644Y14510816D01*
X6911644Y14582038D01*
X6947255Y14582038D01*
X6947255Y14620900D01*
X6911644Y14620900D01*
X6911644Y14688870D01*
X6837172Y14688870D01*
X6837172Y14653260D01*
X6872782Y14653260D01*
X6872782Y14620900D01*
X6801561Y14620900D01*
X6801561Y14582038D01*
X6837172Y14582038D01*
X6837172Y14546427D01*
X6872782Y14546427D01*
X6872782Y14510816D01*
X6837172Y14510816D01*
X6837172Y14546427D01*
X6801561Y14546427D01*
X6801561Y14475206D01*
X6730339Y14475206D01*
X6730339Y14403984D01*
X6691172Y14403984D01*
X6693103Y14366748D01*
X6801561Y14364969D01*
X6801561Y14403984D01*
X6837172Y14403984D01*
X6837172Y14439595D01*
X6872782Y14439595D01*
X6872782Y14475206D01*
X6908393Y14475206D01*
X6908393Y14403984D01*
X6947255Y14403984D01*
X6947255Y14475206D01*
X6979615Y14475206D01*
X6979615Y14403984D01*
X7054088Y14403984D01*
X7054088Y14365122D01*
X7338974Y14365122D01*
X7338974Y14332762D01*
X7306564Y14332762D01*
X7306564Y14365122D01*
X7196531Y14365122D01*
X7196531Y14332762D01*
X7160920Y14332762D01*
X7160920Y14365122D01*
X7125309Y14365122D01*
X7125309Y14332762D01*
X7089698Y14332762D01*
X7089698Y14293900D01*
X7125309Y14293900D01*
X7125309Y14329511D01*
X7303363Y14329511D01*
X7303363Y14261541D01*
X7270953Y14261541D01*
X7270953Y14329511D01*
X7160920Y14329511D01*
X7160920Y14293900D01*
X7232142Y14293900D01*
X7232142Y14261541D01*
X7160920Y14261541D01*
X7160920Y14222679D01*
X7018477Y14222679D01*
X7018477Y14297151D01*
X6982866Y14297151D01*
X6982866Y14329511D01*
X7018477Y14329511D01*
X7018477Y14368373D01*
X6979615Y14368373D01*
X6979615Y14332762D01*
X6947255Y14332762D01*
X6947255Y14368373D01*
X6908393Y14368373D01*
X6908393Y14261541D01*
X6872782Y14261541D01*
X6872782Y14258290D01*
X6944004Y14258290D01*
X6944004Y14222679D01*
X7015225Y14222679D01*
X7015225Y14187068D01*
X7089698Y14187068D01*
X7089698Y14151457D01*
X7018477Y14151457D01*
X7018477Y14187068D01*
X6982866Y14187068D01*
X6982866Y14222679D01*
X6911644Y14222679D01*
X6911644Y14258290D01*
X6872782Y14258290D01*
X6872782Y14222679D01*
X6837172Y14222679D01*
X6837172Y14187068D01*
X6908393Y14187068D01*
X6908393Y14151457D01*
X6872782Y14151457D01*
X6872782Y14187068D01*
X6801561Y14187068D01*
X6801561Y14258290D01*
X6837172Y14258290D01*
X6837172Y14329511D01*
X6872782Y14329511D01*
X6872782Y14368373D01*
X6837172Y14368373D01*
X6837172Y14332762D01*
X6730339Y14332762D01*
X6730339Y14293900D01*
X6801561Y14293900D01*
X6801561Y14261541D01*
X6765950Y14261541D01*
X6765950Y14293900D01*
X6730339Y14293900D01*
X6730339Y14261846D01*
X6693103Y14259915D01*
X6691172Y14222679D01*
X6765950Y14222679D01*
X6765950Y14187068D01*
X6694728Y14187068D01*
X6694728Y14222679D01*
X6655866Y14222679D01*
X6655866Y14187068D01*
X6620256Y14187068D01*
X6620256Y14151457D01*
X6801561Y14151457D01*
X6801561Y14080236D01*
X6911644Y14080236D01*
X6911644Y14151457D01*
X6947255Y14151457D01*
X6947255Y14187068D01*
X6979615Y14187068D01*
X6979615Y14115846D01*
X7054088Y14115846D01*
X7054088Y14080236D01*
X7089698Y14080236D01*
X7089698Y14009014D01*
X7054088Y14009014D01*
X7054088Y13973403D01*
X7018477Y13973403D01*
X7018477Y14009014D01*
X6982866Y14009014D01*
X6982866Y14041374D01*
X7054088Y14041374D01*
X7054088Y14080236D01*
X6979615Y14080236D01*
X6979615Y14044625D01*
X6947255Y14044625D01*
X6947255Y14080236D01*
X6872782Y14080236D01*
X6872782Y14009014D01*
X6837172Y14009014D01*
X6837172Y14080236D01*
X6801561Y14080236D01*
X6801561Y14044625D01*
X6694728Y14044625D01*
X6694728Y14151457D01*
X6620256Y14151457D01*
X6620256Y14009014D01*
X6587896Y14009014D01*
X6587896Y14044625D01*
X6549034Y14044625D01*
X6549034Y14080236D01*
X6587896Y14080236D01*
X6587896Y14151457D01*
X6513423Y14151457D01*
X6513423Y14005763D01*
X6584645Y14005763D01*
X6584645Y13970152D01*
X6655866Y13970152D01*
X6655866Y13937792D01*
X6620256Y13937792D01*
X6620256Y13898930D01*
X6691477Y13898930D01*
X6691477Y13863319D01*
X6730339Y13863319D01*
X6730339Y13898930D01*
X6765950Y13898930D01*
X6765950Y13937792D01*
X6730339Y13937792D01*
X6730339Y13898930D01*
X6694728Y13898930D01*
X6694728Y13970152D01*
X6730339Y13970152D01*
X6730339Y14005763D01*
X6944004Y14005763D01*
X6944004Y13973403D01*
X6908393Y13973403D01*
X6908393Y13937792D01*
X6872782Y13937792D01*
X6872782Y14005763D01*
X6765950Y14005763D01*
X6765950Y13970152D01*
X6801561Y13970152D01*
X6801561Y13934541D01*
X7015225Y13934541D01*
X7015225Y13898930D01*
X6982866Y13898930D01*
X6982866Y13934541D01*
X6872782Y13934541D01*
X6872782Y13898930D01*
X6837172Y13898930D01*
X6837172Y13934541D01*
X6801561Y13934541D01*
X6801561Y13863319D01*
X6911644Y13863319D01*
X6911644Y13898930D01*
X6944004Y13898930D01*
X6944004Y13863319D01*
X7018477Y13863319D01*
X7018477Y13898930D01*
X7054088Y13898930D01*
X7054088Y13970152D01*
X7089698Y13970152D01*
X7089698Y13863319D01*
X7125309Y13863319D01*
X7125309Y13973403D01*
X7089698Y13973403D01*
X7089698Y14005763D01*
X7125309Y14005763D01*
X7125309Y14151457D01*
X7196531Y14151457D01*
X7196531Y14187068D01*
X7160920Y14187068D01*
X7160920Y14222679D01*
X7235342Y14222679D01*
X7235342Y14258290D01*
X7267752Y14258290D01*
X7267752Y14187068D01*
X7232142Y14187068D01*
X7232142Y14151457D01*
X7306564Y14151457D01*
X7306564Y14187068D01*
X7377785Y14187068D01*
X7377785Y14151457D01*
X7413396Y14151457D01*
X7413396Y14187068D01*
X7377785Y14187068D01*
X7377785Y14222679D01*
X7413396Y14222679D01*
X7413396Y14261541D01*
X7377785Y14261541D01*
X7377785Y14222679D01*
X7306564Y14222679D01*
X7306564Y14258290D01*
X7342174Y14258290D01*
X7342174Y14293900D01*
X7413396Y14293900D01*
X7413396Y14332762D01*
X7377785Y14332762D01*
X7377785Y14365122D01*
X7413396Y14365122D01*
X7413396Y14403984D01*
X7377785Y14403984D01*
X7377785Y14439595D01*
X7413396Y14439595D01*
X7413396Y14475206D01*
X7303363Y14475206D01*
X7303363Y14439595D01*
X7338974Y14439595D01*
X7338974Y14403984D01*
X7377785Y14403984D01*
X7377785Y14368373D01*
X7342174Y14368373D01*
X7342174Y14403984D01*
X7303363Y14403984D01*
X7303363Y14368373D01*
X7196531Y14368373D01*
X7196531Y14403984D01*
X7235342Y14403984D01*
X7235342Y14439595D01*
X7270953Y14439595D01*
X7270953Y14475206D01*
X7125309Y14475206D01*
X7125309Y14546427D01*
X7089698Y14546427D01*
X7089698Y14585289D01*
X7054088Y14585289D01*
X7054088Y14617649D01*
X7089698Y14617649D01*
X7089698Y14653260D01*
X7125309Y14653260D01*
X7125309Y14692122D01*
X7054088Y14692122D01*
X7054088Y14727732D01*
X7089698Y14727732D01*
X7089698Y14763343D01*
X7054088Y14763343D01*
X7054088Y14727732D01*
X6982866Y14727732D01*
X6982866Y14763343D01*
X6944004Y14763343D01*
X6944004Y14727732D01*
X6872782Y14727732D01*
X6872782Y14763343D01*
G37*
G36*
X6513423Y14763343D02*
G01*
X6513423Y14727732D01*
X6730339Y14727732D01*
X6730339Y14546427D01*
X6549034Y14546427D01*
X6549034Y14727732D01*
X6513423Y14727732D01*
X6513423Y14510816D01*
X6765950Y14510816D01*
X6765950Y14763343D01*
G37*
G36*
X7232142Y14692122D02*
G01*
X7232142Y14582038D01*
X7342174Y14582038D01*
X7342174Y14692122D01*
G37*
G36*
X6584645Y14692122D02*
G01*
X6584645Y14582038D01*
X6694728Y14582038D01*
X6694728Y14692122D01*
G37*
G36*
X6584645Y14475206D02*
G01*
X6584645Y14439595D01*
X6623507Y14439595D01*
X6623507Y14475206D01*
G37*
G36*
X6513423Y14439595D02*
G01*
X6513423Y14365122D01*
X6549034Y14365122D01*
X6549034Y14332762D01*
X6513423Y14332762D01*
X6513423Y14222679D01*
X6549034Y14222679D01*
X6549034Y14187068D01*
X6587896Y14187068D01*
X6587896Y14222679D01*
X6623507Y14222679D01*
X6623507Y14258290D01*
X6659118Y14258290D01*
X6659118Y14332762D01*
X6620256Y14332762D01*
X6620256Y14261541D01*
X6549034Y14261541D01*
X6549034Y14293900D01*
X6587896Y14293900D01*
X6587896Y14364766D01*
X6621881Y14366748D01*
X6623812Y14403984D01*
X6549034Y14403984D01*
X6549034Y14439595D01*
G37*
G36*
X7160920Y14115846D02*
G01*
X7160920Y14080236D01*
X7377785Y14080236D01*
X7377785Y13898930D01*
X7196531Y13898930D01*
X7196531Y14080236D01*
X7160920Y14080236D01*
X7160920Y13863319D01*
X7413396Y13863319D01*
X7413396Y14115846D01*
G37*
G36*
X6730339Y14115846D02*
G01*
X6730339Y14080236D01*
X6765950Y14080236D01*
X6765950Y14115846D01*
G37*
G36*
X7232142Y14044625D02*
G01*
X7232142Y13934541D01*
X7342174Y13934541D01*
X7342174Y14044625D01*
G37*
G36*
X6513423Y13973403D02*
G01*
X6513423Y13934541D01*
X6549034Y13934541D01*
X6549034Y13898930D01*
X6513423Y13898930D01*
X6513423Y13863319D01*
X6588099Y13863319D01*
X6586270Y13936167D01*
X6549034Y13938097D01*
X6549034Y13973403D01*
G37*
G36*
X6008522Y14544141D02*
G01*
X6008522Y14520621D01*
X6042609Y14518182D01*
X6044742Y14336369D01*
X5906820Y14146377D01*
X5895797Y14114932D01*
X5901131Y14083487D01*
X5928461Y14053362D01*
X5950712Y14044168D01*
X6280556Y14046403D01*
X6291884Y14054785D01*
X6297015Y14059103D01*
X6302603Y14064691D01*
X6307988Y14070838D01*
X6312560Y14076781D01*
X6321907Y14090396D01*
X6318910Y14138910D01*
X6176873Y14333880D01*
X6176873Y14520163D01*
X6212992Y14520163D01*
X6212992Y14529511D01*
X6212789Y14533321D01*
X6212179Y14536877D01*
X6211316Y14539722D01*
X6210300Y14541500D01*
X6207607Y14544141D01*
G37*
G36*
X5312765Y14416227D02*
G01*
X5294934Y14403781D01*
X5294934Y14372844D01*
X5307533Y14360245D01*
X5342585Y14360245D01*
X5355082Y14378025D01*
X5355082Y14396618D01*
X5335422Y14416227D01*
G37*
G36*
X4882184Y14412213D02*
G01*
X4880051Y14182344D01*
X4821936Y14180007D01*
X4821936Y14144396D01*
X4986274Y14144396D01*
X4986274Y14180362D01*
X4926126Y14180362D01*
X4926126Y14376247D01*
X4986274Y14376247D01*
X4986274Y14412213D01*
G37*
G36*
X5450382Y14396262D02*
G01*
X5453989Y14380819D01*
X5485282Y14264487D01*
X5514543Y14158061D01*
X5518099Y14146377D01*
X5587593Y14144040D01*
X5587644Y14150035D01*
X5588609Y14155115D01*
X5595112Y14180718D01*
X5608726Y14231162D01*
X5643727Y14357807D01*
X5650026Y14382496D01*
X5651754Y14391386D01*
X5651754Y14396262D01*
X5601512Y14396262D01*
X5562854Y14236344D01*
X5553049Y14197482D01*
X5550509Y14190370D01*
X5499608Y14395246D01*
X5497576Y14395653D01*
X5484418Y14396161D01*
G37*
G36*
X5140604Y14336217D02*
G01*
X5094478Y14333016D01*
X5064912Y14317726D01*
X5048402Y14295729D01*
X5046812Y14224355D01*
X5145125Y14224355D01*
X5160264Y14213281D01*
X5160264Y14184376D01*
X5151323Y14175435D01*
X5116017Y14171472D01*
X5094020Y14190370D01*
X5089448Y14224355D01*
X5046812Y14224355D01*
X5045811Y14180819D01*
X5024374Y14178381D01*
X5021884Y14144396D01*
X5039918Y14144396D01*
X5047691Y14144650D01*
X5055565Y14145513D01*
X5062626Y14146682D01*
X5067960Y14148206D01*
X5078018Y14152016D01*
X5089448Y14173758D01*
X5098796Y14156385D01*
X5130292Y14140383D01*
X5163007Y14140383D01*
X5194554Y14156436D01*
X5207660Y14181683D01*
X5203901Y14220393D01*
X5196332Y14228927D01*
X5192115Y14232839D01*
X5186222Y14237106D01*
X5179517Y14241272D01*
X5172710Y14244777D01*
X5156657Y14252143D01*
X5094274Y14252295D01*
X5089804Y14263979D01*
X5099304Y14292783D01*
X5109210Y14296542D01*
X5113985Y14298015D01*
X5119725Y14299184D01*
X5125618Y14299996D01*
X5131054Y14300301D01*
X5143042Y14300301D01*
X5154117Y14294561D01*
X5158841Y14291868D01*
X5163464Y14288719D01*
X5167477Y14285518D01*
X5170322Y14282724D01*
X5175402Y14276628D01*
X5198770Y14293799D01*
X5198770Y14307769D01*
X5186375Y14316557D01*
X5180228Y14320367D01*
X5172710Y14324330D01*
X5164734Y14327987D01*
X5157266Y14330781D01*
G37*
G36*
X5407202Y14332508D02*
G01*
X5300980Y14330273D01*
X5298795Y14180362D01*
X5242864Y14180362D01*
X5242864Y14144396D01*
X5407202Y14144396D01*
X5407202Y14180362D01*
X5347055Y14180362D01*
X5347055Y14296288D01*
X5407202Y14296288D01*
G37*
M02*
