G04 Layer: TopPasteMaskLayer*
G04 EasyEDA v6.5.47, 2024-11-03 14:34:40*
G04 684bee94884246f2b67ba1c568fef4cc,02b1cd47abf14eeea88f237cf3128960,10*
G04 Gerber Generator version 0.2*
G04 Scale: 100 percent, Rotated: No, Reflected: No *
G04 Dimensions in millimeters *
G04 leading zeros omitted , absolute positions ,4 integer and 5 decimal *
%FSLAX45Y45*%
%MOMM*%

%AMMACRO1*21,1,$1,$2,0,0,$3*%
%ADD10MACRO1,1X1.3995X-45.0000*%
%ADD11MACRO1,1X1.3995X135.0000*%
%ADD12R,2.4000X1.8000*%
%ADD13R,2.0000X1.2000*%
%ADD14R,1.2000X2.0000*%

%LPD*%
G36*
X4415485Y15312339D02*
G01*
X4405477Y15302331D01*
X4405477Y15266212D01*
X4415485Y15256205D01*
X4436567Y15256205D01*
X4446574Y15246197D01*
X4446574Y15208402D01*
X4436567Y15198394D01*
X4415485Y15198394D01*
X4405477Y15188387D01*
X4405477Y15152268D01*
X4415485Y15142260D01*
X4516272Y15142260D01*
X4526229Y15152268D01*
X4526229Y15302331D01*
X4516272Y15312339D01*
G37*
G36*
X4119727Y15312339D02*
G01*
X4109770Y15302331D01*
X4109770Y15152268D01*
X4119727Y15142260D01*
X4220514Y15142260D01*
X4230522Y15152268D01*
X4230522Y15188387D01*
X4220514Y15198394D01*
X4199432Y15198394D01*
X4189425Y15208402D01*
X4189425Y15246197D01*
X4199432Y15256205D01*
X4220514Y15256205D01*
X4230522Y15266212D01*
X4230522Y15302331D01*
X4220514Y15312339D01*
G37*
G36*
X6434785Y15325039D02*
G01*
X6424777Y15315031D01*
X6424777Y15278912D01*
X6434785Y15268905D01*
X6455867Y15268905D01*
X6465874Y15258897D01*
X6465874Y15221102D01*
X6455867Y15211094D01*
X6434785Y15211094D01*
X6424777Y15201087D01*
X6424777Y15164968D01*
X6434785Y15154960D01*
X6535572Y15154960D01*
X6545529Y15164968D01*
X6545529Y15315031D01*
X6535572Y15325039D01*
G37*
G36*
X6139027Y15325039D02*
G01*
X6129070Y15315031D01*
X6129070Y15164968D01*
X6139027Y15154960D01*
X6239814Y15154960D01*
X6249822Y15164968D01*
X6249822Y15201087D01*
X6239814Y15211094D01*
X6218732Y15211094D01*
X6208725Y15221102D01*
X6208725Y15258897D01*
X6218732Y15268905D01*
X6239814Y15268905D01*
X6249822Y15278912D01*
X6249822Y15315031D01*
X6239814Y15325039D01*
G37*
G36*
X8466785Y15325039D02*
G01*
X8456777Y15315031D01*
X8456777Y15278912D01*
X8466785Y15268905D01*
X8487867Y15268905D01*
X8497874Y15258897D01*
X8497874Y15221102D01*
X8487867Y15211094D01*
X8466785Y15211094D01*
X8456777Y15201087D01*
X8456777Y15164968D01*
X8466785Y15154960D01*
X8567572Y15154960D01*
X8577529Y15164968D01*
X8577529Y15315031D01*
X8567572Y15325039D01*
G37*
G36*
X8171027Y15325039D02*
G01*
X8161070Y15315031D01*
X8161070Y15164968D01*
X8171027Y15154960D01*
X8271814Y15154960D01*
X8281822Y15164968D01*
X8281822Y15201087D01*
X8271814Y15211094D01*
X8250732Y15211094D01*
X8240725Y15221102D01*
X8240725Y15258897D01*
X8250732Y15268905D01*
X8271814Y15268905D01*
X8281822Y15278912D01*
X8281822Y15315031D01*
X8271814Y15325039D01*
G37*
D10*
G01*
X1500530Y15542869D03*
D11*
G01*
X1649069Y15394330D03*
D10*
G01*
X2034057Y15542742D03*
D11*
G01*
X2182596Y15394203D03*
D10*
G01*
X2567330Y15542869D03*
D11*
G01*
X2715869Y15394330D03*
D12*
G01*
X5035295Y17618862D03*
G01*
X3575304Y17618862D03*
G01*
X5035295Y18118861D03*
G01*
X3575304Y18118861D03*
G01*
X7067295Y17618862D03*
G01*
X5607304Y17618862D03*
G01*
X7067295Y18118861D03*
G01*
X5607304Y18118861D03*
G01*
X9086570Y17618913D03*
G01*
X7626578Y17618913D03*
G01*
X9086570Y18118886D03*
G01*
X7626578Y18118886D03*
G01*
X5035321Y15879038D03*
G01*
X3575329Y15879038D03*
G01*
X5035321Y16379037D03*
G01*
X3575329Y16379037D03*
G01*
X7067295Y15879013D03*
G01*
X5607304Y15879013D03*
G01*
X7067295Y16378986D03*
G01*
X5607304Y16378986D03*
G01*
X9086595Y15879013D03*
G01*
X7626604Y15879013D03*
G01*
X9086595Y16378986D03*
G01*
X7626604Y16378986D03*
G01*
X2901695Y14139062D03*
G01*
X1441704Y14139062D03*
G01*
X2901695Y14639061D03*
G01*
X1441704Y14639061D03*
G01*
X5022595Y14139062D03*
G01*
X3562604Y14139062D03*
G01*
X5022595Y14639061D03*
G01*
X3562604Y14639061D03*
G01*
X7054595Y14139113D03*
G01*
X5594604Y14139113D03*
G01*
X7054595Y14639086D03*
G01*
X5594604Y14639086D03*
G01*
X9073895Y14139062D03*
G01*
X7613904Y14139062D03*
G01*
X9073895Y14639061D03*
G01*
X7613904Y14639061D03*
D13*
G01*
X2983585Y18317083D03*
G01*
X2983585Y18063083D03*
G01*
X2983585Y17809083D03*
G01*
X2983585Y17555083D03*
G01*
X2983585Y17301083D03*
G01*
X2983585Y17047083D03*
G01*
X2983585Y16793083D03*
G01*
X2983585Y16539082D03*
G01*
X2983585Y16285108D03*
D14*
G01*
X2641600Y16176091D03*
G01*
X2387600Y16176091D03*
G01*
X2133600Y16176091D03*
G01*
X1879600Y16176091D03*
G01*
X1625600Y16176091D03*
D13*
G01*
X1283588Y16285108D03*
G01*
X1283588Y16539108D03*
G01*
X1283588Y16793108D03*
G01*
X1283588Y17047108D03*
G01*
X1283588Y17301108D03*
G01*
X1283588Y17555108D03*
G01*
X1283588Y17809083D03*
G01*
X1283588Y18063083D03*
G01*
X1283588Y18317083D03*
M02*
