G04 Layer: TopSilkscreenLayer*
G04 EasyEDA v6.5.47, 2024-11-03 14:34:40*
G04 684bee94884246f2b67ba1c568fef4cc,02b1cd47abf14eeea88f237cf3128960,10*
G04 Gerber Generator version 0.2*
G04 Scale: 100 percent, Rotated: No, Reflected: No *
G04 Dimensions in millimeters *
G04 leading zeros omitted , absolute positions ,4 integer and 5 decimal *
%FSLAX45Y45*%
%MOMM*%

%ADD10C,0.1524*%
%ADD11C,0.2540*%

%LPD*%
G36*
X7013600Y17117618D02*
G01*
X6977684Y17117466D01*
X6970420Y17116755D01*
X6966864Y17115180D01*
X6959904Y17114316D01*
X6957263Y17112335D01*
X6950709Y17111573D01*
X6946239Y17109084D01*
X6943801Y17109084D01*
X6941515Y17107966D01*
X6941515Y17107255D01*
X6936790Y17105680D01*
X6935012Y17103953D01*
X6931355Y17102937D01*
X6929780Y17101159D01*
X6925919Y17100143D01*
X6924751Y17098568D01*
X6921347Y17097197D01*
X6919925Y17094911D01*
X6918756Y17094911D01*
X6916369Y17092066D01*
X6915607Y17092066D01*
X6908292Y17086122D01*
X6901535Y17079366D01*
X6901535Y17078604D01*
X6899351Y17076674D01*
X6891172Y17066361D01*
X6889902Y17063770D01*
X6888632Y17063262D01*
X6887159Y17058538D01*
X6885940Y17058030D01*
X6884822Y17054423D01*
X6882688Y17051782D01*
X6882688Y17050105D01*
X6880504Y17047565D01*
X6879539Y17043958D01*
X6877862Y17042282D01*
X6876796Y17035983D01*
X6874967Y17033951D01*
X6874205Y17026788D01*
X6872224Y17023994D01*
X6871512Y17012310D01*
X6869785Y17007128D01*
X6869175Y16990568D01*
X6869988Y16977309D01*
X6871512Y16974159D01*
X6872224Y16962475D01*
X6874154Y16959224D01*
X6875018Y16952315D01*
X6876897Y16949623D01*
X6877710Y16944289D01*
X6879488Y16942308D01*
X6880504Y16938294D01*
X6882130Y16937380D01*
X6883095Y16933265D01*
X6885279Y16931284D01*
X6885838Y16928033D01*
X6888073Y16925798D01*
X6888073Y16924375D01*
X6891477Y16919143D01*
X6898335Y16911066D01*
X6906006Y16901515D01*
X6908952Y16899991D01*
X6910070Y16898061D01*
X6911390Y16898061D01*
X6913016Y16895927D01*
X6920331Y16890085D01*
X6923024Y16888612D01*
X6923531Y16887240D01*
X6927342Y16886123D01*
X6929780Y16883989D01*
X6932879Y16883380D01*
X6934453Y16881500D01*
X6938111Y16880484D01*
X6940550Y16878300D01*
X6943902Y16877639D01*
X6946392Y16875709D01*
X6952538Y16875099D01*
X6955840Y16872966D01*
X6963054Y16872102D01*
X6965797Y16869918D01*
X6983933Y16869308D01*
X6989775Y16867581D01*
X7003237Y16867682D01*
X7010450Y16869257D01*
X7023658Y16870019D01*
X7027011Y16872102D01*
X7034428Y16872915D01*
X7038340Y16875353D01*
X7041540Y16875353D01*
X7044893Y16877741D01*
X7049363Y16878655D01*
X7052056Y16881043D01*
X7054088Y16881043D01*
X7057491Y16883888D01*
X7059574Y16883888D01*
X7062165Y16886478D01*
X7068566Y16890238D01*
X7070394Y16892371D01*
X7071156Y16892371D01*
X7081824Y16902074D01*
X7087666Y16908983D01*
X7088886Y16911624D01*
X7087870Y16915587D01*
X7087057Y16915587D01*
X7081316Y16921480D01*
X7066584Y16935805D01*
X7062520Y16939463D01*
X7054443Y16947286D01*
X7053884Y16947286D01*
X7050379Y16944390D01*
X7039152Y16933672D01*
X7036358Y16932148D01*
X7035901Y16930878D01*
X7032396Y16929760D01*
X7030262Y16927423D01*
X7029348Y16927423D01*
X7026148Y16925036D01*
X7021220Y16924070D01*
X7018832Y16922242D01*
X7013143Y16921276D01*
X7008215Y16919143D01*
X6983933Y16919143D01*
X6980123Y16921276D01*
X6973265Y16922191D01*
X6971690Y16923664D01*
X6966458Y16925137D01*
X6965086Y16926407D01*
X6960717Y16928338D01*
X6958482Y16930217D01*
X6957059Y16930217D01*
X6954774Y16932656D01*
X6950303Y16936364D01*
X6949490Y16936364D01*
X6946036Y16939920D01*
X6939940Y16948353D01*
X6937451Y16950791D01*
X6937451Y16952366D01*
X6935114Y16956024D01*
X6934200Y16958868D01*
X6932574Y16960748D01*
X6931609Y16965472D01*
X6929831Y16968470D01*
X6929018Y16975226D01*
X6926935Y16979188D01*
X6926935Y17007128D01*
X6928967Y17010634D01*
X6929729Y17017695D01*
X6931609Y17020235D01*
X6932218Y17025061D01*
X6934250Y17026991D01*
X6935165Y17030547D01*
X6937451Y17033443D01*
X6937451Y17035272D01*
X6948271Y17048530D01*
X6949135Y17048530D01*
X6954774Y17054220D01*
X6955637Y17054220D01*
X6957923Y17056404D01*
X6962190Y17058081D01*
X6962190Y17058843D01*
X6966407Y17060367D01*
X6968286Y17062246D01*
X6974331Y17063110D01*
X6977532Y17065244D01*
X6989876Y17066412D01*
X6996633Y17068088D01*
X7004151Y17066056D01*
X7014413Y17065396D01*
X7018528Y17063059D01*
X7023201Y17062348D01*
X7025690Y17060468D01*
X7029297Y17059249D01*
X7031837Y17057065D01*
X7032955Y17057065D01*
X7035038Y17054728D01*
X7038289Y17053610D01*
X7051497Y17040352D01*
X7055408Y17039894D01*
X7062571Y17046397D01*
X7075830Y17059859D01*
X7076338Y17059859D01*
X7088886Y17072711D01*
X7088327Y17076674D01*
X7076440Y17089170D01*
X7070496Y17094708D01*
X7067702Y17095978D01*
X7067702Y17096841D01*
X7064298Y17098314D01*
X7063587Y17099686D01*
X7059472Y17101566D01*
X7058507Y17102836D01*
X7053834Y17104410D01*
X7053427Y17105630D01*
X7049058Y17106849D01*
X7047179Y17108627D01*
X7042505Y17109440D01*
X7039762Y17111573D01*
X7034225Y17112284D01*
X7030466Y17114367D01*
X7021880Y17115231D01*
X7019340Y17116602D01*
G37*
G36*
X6745528Y17117517D02*
G01*
X6737553Y17116653D01*
X6734759Y17115180D01*
X6727698Y17114316D01*
X6724599Y17112284D01*
X6717690Y17111472D01*
X6715353Y17109643D01*
X6710375Y17108678D01*
X6707022Y17106239D01*
X6705447Y17106239D01*
X6701536Y17103445D01*
X6700062Y17103394D01*
X6696608Y17100905D01*
X6693458Y17099991D01*
X6691630Y17098314D01*
X6688734Y17096740D01*
X6688734Y17095825D01*
X6685584Y17094250D01*
X6685584Y17093539D01*
X6682231Y17091406D01*
X6676085Y17086122D01*
X6669633Y17079468D01*
X6660794Y17069104D01*
X6656374Y17063008D01*
X6656374Y17061637D01*
X6653682Y17058436D01*
X6653682Y17056252D01*
X6651447Y17054017D01*
X6650481Y17050207D01*
X6648805Y17048988D01*
X6647738Y17045533D01*
X6645605Y17042231D01*
X6645605Y17039336D01*
X6643319Y17035830D01*
X6642455Y17029582D01*
X6640575Y17026890D01*
X6639814Y17016882D01*
X6638442Y17014088D01*
X6637477Y17007332D01*
X6637781Y16974007D01*
X6639814Y16968876D01*
X6640575Y16959580D01*
X6642557Y16956278D01*
X6643065Y16950994D01*
X6645097Y16947794D01*
X6646164Y16942104D01*
X6648297Y16940022D01*
X6648297Y16938447D01*
X6650990Y16934281D01*
X6650990Y16933164D01*
X6653123Y16930471D01*
X6654190Y16927017D01*
X6655917Y16925391D01*
X6656476Y16922597D01*
X6661556Y16916501D01*
X6670090Y16905528D01*
X6677253Y16898670D01*
X6679539Y16897451D01*
X6681317Y16895622D01*
X6688328Y16889526D01*
X6689039Y16889526D01*
X6692341Y16886783D01*
X6694931Y16886174D01*
X6695998Y16884853D01*
X6700164Y16883176D01*
X6703212Y16881043D01*
X6704787Y16881043D01*
X6708241Y16878503D01*
X6711340Y16877639D01*
X6713778Y16875709D01*
X6720535Y16874998D01*
X6723786Y16872864D01*
X6730542Y16872102D01*
X6733844Y16869918D01*
X6751370Y16869308D01*
X6757212Y16867632D01*
X6770674Y16867682D01*
X6778294Y16869257D01*
X6791401Y16869968D01*
X6794804Y16872204D01*
X6802475Y16872915D01*
X6805066Y16874947D01*
X6809943Y16875760D01*
X6812432Y16877690D01*
X6817309Y16878655D01*
X6819646Y16881043D01*
X6821220Y16881043D01*
X6823709Y16882364D01*
X6824827Y16883786D01*
X6827824Y16884345D01*
X6828993Y16885818D01*
X6832346Y16887647D01*
X6833108Y16888866D01*
X6836918Y16890644D01*
X6836918Y16891406D01*
X6839051Y16892625D01*
X6848195Y16901210D01*
X6856679Y16910608D01*
X6856679Y16913707D01*
X6852818Y16917771D01*
X6836511Y16933316D01*
X6823049Y16946778D01*
X6820306Y16946778D01*
X6816547Y16943273D01*
X6806438Y16933062D01*
X6805523Y16933062D01*
X6802983Y16930878D01*
X6800189Y16929709D01*
X6798106Y16927423D01*
X6796531Y16927423D01*
X6793687Y16924883D01*
X6788861Y16924172D01*
X6786168Y16922140D01*
X6780987Y16921327D01*
X6775602Y16919143D01*
X6751370Y16919143D01*
X6747814Y16921327D01*
X6741312Y16922089D01*
X6738315Y16924020D01*
X6733946Y16925086D01*
X6731406Y16927322D01*
X6728459Y16927982D01*
X6721703Y16933113D01*
X6720179Y16933672D01*
X6718808Y16935907D01*
X6717639Y16935907D01*
X6713626Y16940174D01*
X6705803Y16950182D01*
X6705803Y16951401D01*
X6703618Y16953636D01*
X6702704Y16957344D01*
X6700774Y16959478D01*
X6699910Y16963440D01*
X6698081Y16966082D01*
X6697370Y16972686D01*
X6694931Y16977055D01*
X6694931Y17007586D01*
X6695592Y17010430D01*
X6697370Y17013580D01*
X6698081Y17020184D01*
X6699554Y17021962D01*
X6700875Y17026483D01*
X6703009Y17029836D01*
X6703669Y17032224D01*
X6705803Y17034865D01*
X6705803Y17036084D01*
X6711188Y17042384D01*
X6711188Y17043146D01*
X6715963Y17048276D01*
X6720230Y17051578D01*
X6725513Y17056506D01*
X6728714Y17057420D01*
X6731457Y17059859D01*
X6733540Y17059859D01*
X6736435Y17062450D01*
X6742379Y17063161D01*
X6744919Y17065193D01*
X6758127Y17066463D01*
X6764121Y17068038D01*
X6771589Y17066056D01*
X6782358Y17065447D01*
X6785609Y17063161D01*
X6790944Y17062348D01*
X6794347Y17059859D01*
X6795922Y17059859D01*
X6799325Y17057065D01*
X6800850Y17057065D01*
X6802526Y17055033D01*
X6806184Y17053306D01*
X6807860Y17051375D01*
X6808622Y17051375D01*
X6819595Y17039996D01*
X6823202Y17039996D01*
X6848551Y17064482D01*
X6856679Y17072660D01*
X6856679Y17076064D01*
X6851243Y17081652D01*
X6851243Y17082262D01*
X6846925Y17086630D01*
X6837680Y17094911D01*
X6835597Y17095470D01*
X6835140Y17096740D01*
X6831533Y17098721D01*
X6831533Y17099534D01*
X6827774Y17101108D01*
X6825284Y17103293D01*
X6822186Y17103902D01*
X6820611Y17105782D01*
X6816902Y17106798D01*
X6815023Y17108627D01*
X6809740Y17109541D01*
X6807200Y17111522D01*
X6801256Y17112437D01*
X6798309Y17114367D01*
X6789877Y17115180D01*
X6785051Y17117364D01*
G37*
G36*
X6275628Y17114824D02*
G01*
X6233058Y17114520D01*
X6231280Y17112792D01*
X6230112Y17109897D01*
X6228029Y17107712D01*
X6228029Y17106392D01*
X6225336Y17102785D01*
X6225336Y17101210D01*
X6223101Y17098975D01*
X6222034Y17095266D01*
X6220764Y17094758D01*
X6216650Y17086122D01*
X6215075Y17084954D01*
X6214465Y17082058D01*
X6211976Y17079061D01*
X6211316Y17076674D01*
X6209182Y17073981D01*
X6209182Y17072762D01*
X6206490Y17069206D01*
X6206490Y17067428D01*
X6204254Y17065396D01*
X6203238Y17061992D01*
X6201460Y17059960D01*
X6197803Y17052544D01*
X6195720Y17050461D01*
X6195720Y17048632D01*
X6193028Y17045076D01*
X6193028Y17043908D01*
X6190335Y17040352D01*
X6190335Y17038777D01*
X6188049Y17036542D01*
X6187033Y17032833D01*
X6185509Y17032020D01*
X6183985Y17027702D01*
X6183223Y17027702D01*
X6182055Y17024654D01*
X6179566Y17021505D01*
X6179566Y17019676D01*
X6176975Y17016577D01*
X6176264Y17014240D01*
X6174181Y17011548D01*
X6174181Y17010227D01*
X6171895Y17007687D01*
X6171336Y17005249D01*
X6169253Y17002861D01*
X6168186Y16999559D01*
X6166053Y16997476D01*
X6166053Y16996156D01*
X6163360Y16992549D01*
X6163360Y16990771D01*
X6161176Y16988739D01*
X6160109Y16985335D01*
X6158687Y16983608D01*
X6156248Y16979188D01*
X6154724Y16975886D01*
X6152692Y16973296D01*
X6152083Y16970552D01*
X6149238Y16970095D01*
X6148120Y16971568D01*
X6148120Y16973245D01*
X6145428Y16976496D01*
X6145428Y16977461D01*
X6143294Y16980154D01*
X6142583Y16982541D01*
X6140094Y16985538D01*
X6139535Y16988282D01*
X6137351Y16990314D01*
X6137351Y16991685D01*
X6135217Y16994327D01*
X6134557Y16996714D01*
X6132474Y16999102D01*
X6130950Y17003115D01*
X6130137Y17003115D01*
X6128410Y17007281D01*
X6127496Y17007890D01*
X6125768Y17011853D01*
X6123889Y17013682D01*
X6123889Y17015307D01*
X6121704Y17018000D01*
X6120333Y17021556D01*
X6119469Y17021556D01*
X6117945Y17025721D01*
X6115761Y17027855D01*
X6115761Y17029480D01*
X6113068Y17033036D01*
X6113068Y17034357D01*
X6110986Y17036440D01*
X6109919Y17039844D01*
X6107684Y17041876D01*
X6107684Y17043654D01*
X6104991Y17047260D01*
X6104991Y17048378D01*
X6102908Y17050461D01*
X6101842Y17054169D01*
X6100064Y17055490D01*
X6099048Y17058690D01*
X6096914Y17061383D01*
X6096914Y17062551D01*
X6094831Y17064634D01*
X6093714Y17068444D01*
X6092393Y17069003D01*
X6090158Y17073829D01*
X6088126Y17077334D01*
X6086703Y17079061D01*
X6085586Y17082668D01*
X6084265Y17083227D01*
X6082538Y17087088D01*
X6080099Y17091406D01*
X6078067Y17094047D01*
X6078067Y17095825D01*
X6075375Y17098721D01*
X6075375Y17100042D01*
X6073292Y17102683D01*
X6072124Y17105833D01*
X6070549Y17106950D01*
X6069533Y17110252D01*
X6065570Y17114774D01*
X6022390Y17114774D01*
X6020612Y17112894D01*
X6020612Y16873982D01*
X6021984Y16872508D01*
X6071616Y16872508D01*
X6072682Y16873626D01*
X6072682Y17004741D01*
X6073648Y17006163D01*
X6078067Y16997476D01*
X6079286Y16996714D01*
X6080353Y16993311D01*
X6082538Y16991126D01*
X6082538Y16989501D01*
X6085230Y16985945D01*
X6085230Y16984675D01*
X6087922Y16981779D01*
X6087922Y16979950D01*
X6090615Y16976699D01*
X6090615Y16975734D01*
X6092698Y16973042D01*
X6093866Y16970095D01*
X6096050Y16967911D01*
X6096050Y16966336D01*
X6098743Y16962729D01*
X6098743Y16961408D01*
X6100826Y16959326D01*
X6101892Y16955922D01*
X6104128Y16953890D01*
X6104128Y16952671D01*
X6108852Y16945152D01*
X6109919Y16942460D01*
X6112205Y16939615D01*
X6112205Y16938396D01*
X6114897Y16934840D01*
X6114897Y16933519D01*
X6116980Y16931436D01*
X6118047Y16928134D01*
X6119876Y16926102D01*
X6123381Y16919041D01*
X6125108Y16917416D01*
X6126632Y16913199D01*
X6127496Y16913199D01*
X6129223Y16908932D01*
X6130086Y16908932D01*
X6131661Y16904614D01*
X6133287Y16903446D01*
X6134404Y16899788D01*
X6136944Y16897807D01*
X6161379Y16897807D01*
X6163614Y16898518D01*
X6165596Y16902074D01*
X6167577Y16906341D01*
X6169660Y16908424D01*
X6169660Y16910253D01*
X6171692Y16912894D01*
X6174130Y16917212D01*
X6175857Y16921124D01*
X6177229Y16921683D01*
X6178245Y16925493D01*
X6180429Y16927830D01*
X6180429Y16929150D01*
X6183122Y16932757D01*
X6183122Y16933926D01*
X6185408Y16936770D01*
X6186373Y16939768D01*
X6188506Y16942003D01*
X6188506Y16943374D01*
X6191199Y16946930D01*
X6191199Y16948505D01*
X6193434Y16950740D01*
X6194501Y16954144D01*
X6196634Y16956227D01*
X6196634Y16957548D01*
X6199327Y16961104D01*
X6199327Y16962729D01*
X6201562Y16964964D01*
X6202629Y16968622D01*
X6204153Y16969486D01*
X6205169Y16972737D01*
X6207404Y16975429D01*
X6207404Y16976902D01*
X6209639Y16979138D01*
X6210554Y16982795D01*
X6211925Y16983354D01*
X6215735Y16991177D01*
X6218174Y16994174D01*
X6218174Y16996054D01*
X6220256Y16998137D01*
X6222238Y17002404D01*
X6224219Y17006062D01*
X6225133Y17005960D01*
X6225641Y16977766D01*
X6225794Y16874032D01*
X6227267Y16872762D01*
X6276543Y16872508D01*
X6279184Y16873931D01*
X6279743Y16878096D01*
X6278829Y17110354D01*
X6277508Y17113758D01*
G37*
G36*
X5982004Y17114774D02*
G01*
X5795416Y17114672D01*
X5792571Y17113808D01*
X5791606Y17110862D01*
X5791606Y17067123D01*
X5793232Y17065548D01*
X5909614Y17065548D01*
X5910173Y17064634D01*
X5904636Y17057776D01*
X5904128Y17056354D01*
X5895644Y17046397D01*
X5891936Y17041317D01*
X5890463Y17038980D01*
X5888583Y17037608D01*
X5888583Y17036288D01*
X5885891Y17034256D01*
X5885891Y17033392D01*
X5882386Y17029734D01*
X5877001Y17021962D01*
X5875121Y17020540D01*
X5875121Y17019270D01*
X5872429Y17017238D01*
X5872429Y17016272D01*
X5869940Y17013732D01*
X5861862Y17003064D01*
X5856478Y16996613D01*
X5844387Y16981068D01*
X5841085Y16977156D01*
X5838342Y16973194D01*
X5828080Y16960392D01*
X5823458Y16954144D01*
X5813348Y16941749D01*
X5810250Y16937329D01*
X5802579Y16928033D01*
X5796737Y16920311D01*
X5789574Y16911726D01*
X5788964Y16910151D01*
X5788914Y16873982D01*
X5790336Y16872508D01*
X5988608Y16872508D01*
X5990945Y16874490D01*
X5990945Y16916552D01*
X5989066Y16920514D01*
X5988050Y16921226D01*
X5869025Y16921276D01*
X5865672Y16921835D01*
X5865672Y16922953D01*
X5867704Y16925036D01*
X5877407Y16937685D01*
X5882589Y16943984D01*
X5891072Y16955008D01*
X5894527Y16959122D01*
X5900928Y16967860D01*
X5905652Y16973092D01*
X5905652Y16973753D01*
X5909106Y16977461D01*
X5914542Y16985183D01*
X5916422Y16986605D01*
X5916422Y16987875D01*
X5919114Y16989907D01*
X5919114Y16990872D01*
X5921603Y16993412D01*
X5927598Y17001439D01*
X5947156Y17026077D01*
X5953048Y17033849D01*
X5960719Y17043349D01*
X5969203Y17054372D01*
X5978855Y17066412D01*
X5978855Y17067072D01*
X5983782Y17072457D01*
X5983782Y17073524D01*
X5985611Y17074896D01*
X5986475Y17078096D01*
X5986475Y17110049D01*
X5985154Y17113402D01*
G37*
G36*
X6574180Y17114774D02*
G01*
X6562344Y17102074D01*
X6511391Y17045432D01*
X6500368Y17033544D01*
X6477558Y17007789D01*
X6476796Y17009008D01*
X6476746Y17110252D01*
X6475577Y17113554D01*
X6472529Y17114723D01*
X6423558Y17114723D01*
X6421628Y17113859D01*
X6420002Y17111268D01*
X6420002Y16874794D01*
X6422491Y16872508D01*
X6474815Y16872508D01*
X6476542Y16873880D01*
X6476796Y16933722D01*
X6504178Y16963339D01*
X6504838Y16963339D01*
X6510934Y16956125D01*
X6510934Y16955465D01*
X6519468Y16944644D01*
X6521704Y16942257D01*
X6521704Y16941190D01*
X6523583Y16939768D01*
X6528054Y16933316D01*
X6536283Y16923105D01*
X6542176Y16915282D01*
X6550710Y16904462D01*
X6552133Y16902226D01*
X6559194Y16893794D01*
X6566408Y16884040D01*
X6572656Y16876217D01*
X6575907Y16872508D01*
X6637578Y16872508D01*
X6640220Y16873982D01*
X6640220Y16874744D01*
X6638899Y16875912D01*
X6638340Y16877944D01*
X6636156Y16880332D01*
X6633057Y16884446D01*
X6633057Y16885259D01*
X6624980Y16894911D01*
X6624980Y16895775D01*
X6611467Y16913301D01*
X6611467Y16913961D01*
X6608368Y16917720D01*
X6606082Y16920108D01*
X6606082Y16921226D01*
X6603847Y16922800D01*
X6603847Y16923867D01*
X6592620Y16938345D01*
X6592620Y16939006D01*
X6587490Y16945559D01*
X6584950Y16948302D01*
X6583629Y16951045D01*
X6582918Y16951045D01*
X6581952Y16953280D01*
X6574028Y16963288D01*
X6567931Y16971619D01*
X6563004Y16977563D01*
X6563004Y16978426D01*
X6557365Y16985538D01*
X6549288Y16996664D01*
X6546850Y16999204D01*
X6546850Y17000220D01*
X6544716Y17001947D01*
X6543548Y17004284D01*
X6542785Y17004842D01*
X6544157Y17008246D01*
X6563207Y17030039D01*
X6578955Y17047464D01*
X6591046Y17061586D01*
X6616446Y17089983D01*
X6628333Y17103852D01*
X6633514Y17109541D01*
X6633514Y17113300D01*
X6631482Y17114774D01*
G37*
G36*
X4972202Y17342612D02*
G01*
X4971288Y17341697D01*
X4971288Y17313097D01*
X5139232Y17313097D01*
X5139232Y17174667D01*
X5000802Y17174667D01*
X5000802Y17313097D01*
X4971288Y17313097D01*
X4971288Y17146117D01*
X4972202Y17145152D01*
X5167782Y17145152D01*
X5168747Y17146117D01*
X5168747Y17341697D01*
X5167782Y17342612D01*
G37*
G36*
X5196484Y17342612D02*
G01*
X5195570Y17341697D01*
X5195570Y17314011D01*
X5196484Y17313097D01*
X5279491Y17313097D01*
X5279491Y17285462D01*
X5335879Y17285462D01*
X5335879Y17258639D01*
X5307888Y17258639D01*
X5307888Y17285462D01*
X5279491Y17285462D01*
X5279491Y17258639D01*
X5252669Y17258639D01*
X5252669Y17285309D01*
X5251754Y17286274D01*
X5224068Y17286274D01*
X5223154Y17285309D01*
X5223154Y17258792D01*
X5224068Y17257877D01*
X5419801Y17257877D01*
X5419801Y17118330D01*
X5364226Y17118330D01*
X5364226Y17145152D01*
X5390896Y17145152D01*
X5391861Y17146117D01*
X5391861Y17228972D01*
X5390896Y17229886D01*
X5364226Y17229886D01*
X5364226Y17257877D01*
X5251907Y17257877D01*
X5251907Y17202302D01*
X5224068Y17202302D01*
X5223306Y17201540D01*
X5363464Y17201540D01*
X5363464Y17145965D01*
X5336641Y17145965D01*
X5336641Y17173752D01*
X5335727Y17174667D01*
X5307888Y17174667D01*
X5307888Y17201540D01*
X5279491Y17201540D01*
X5279491Y17174667D01*
X5252669Y17174667D01*
X5252669Y17201540D01*
X5223306Y17201540D01*
X5223154Y17201388D01*
X5223154Y17174667D01*
X5196484Y17174667D01*
X5195722Y17173905D01*
X5307126Y17173905D01*
X5307126Y17145965D01*
X5280304Y17145965D01*
X5280304Y17173905D01*
X5251907Y17173905D01*
X5251907Y17145965D01*
X5223916Y17145965D01*
X5223916Y17173905D01*
X5195722Y17173905D01*
X5195570Y17173752D01*
X5195570Y17145152D01*
X5335879Y17145152D01*
X5335879Y17118330D01*
X5307888Y17118330D01*
X5307888Y17145152D01*
X5279491Y17145152D01*
X5279491Y17090745D01*
X5252669Y17090745D01*
X5252669Y17145152D01*
X5195570Y17145152D01*
X5195570Y17118482D01*
X5196484Y17117568D01*
X5223154Y17117568D01*
X5223154Y17090745D01*
X5196484Y17090745D01*
X5195722Y17089983D01*
X5251907Y17089983D01*
X5251907Y17061992D01*
X5223916Y17061992D01*
X5223916Y17089983D01*
X5195722Y17089983D01*
X5195570Y17089831D01*
X5195570Y17034560D01*
X5196484Y17033595D01*
X5251754Y17033595D01*
X5252669Y17034560D01*
X5252669Y17061230D01*
X5279491Y17061230D01*
X5279491Y17006773D01*
X5224068Y17006773D01*
X5223306Y17006011D01*
X5307126Y17006011D01*
X5307126Y16978020D01*
X5280304Y16978020D01*
X5280304Y17006011D01*
X5223306Y17006011D01*
X5223154Y17005858D01*
X5223154Y16978020D01*
X5168747Y16978020D01*
X5168747Y17005858D01*
X5167782Y17006773D01*
X5140147Y17006773D01*
X5139232Y17005858D01*
X5139232Y16978172D01*
X5140147Y16977258D01*
X5251907Y16977258D01*
X5251907Y16922851D01*
X5223916Y16922851D01*
X5223916Y16977258D01*
X5167934Y16977258D01*
X5167934Y16950436D01*
X5140147Y16950436D01*
X5139385Y16949674D01*
X5195570Y16949674D01*
X5195570Y16922851D01*
X5168747Y16922851D01*
X5168747Y16949674D01*
X5139385Y16949674D01*
X5139232Y16949521D01*
X5139232Y16923004D01*
X5140147Y16922089D01*
X5167934Y16922089D01*
X5167934Y16894098D01*
X5112512Y16894098D01*
X5111597Y16893184D01*
X5111597Y16866616D01*
X5112512Y16865701D01*
X5167782Y16865701D01*
X5168747Y16866616D01*
X5168747Y16893336D01*
X5195417Y16893336D01*
X5196332Y16894251D01*
X5196332Y16922089D01*
X5223154Y16922089D01*
X5223154Y16866463D01*
X5196484Y16866463D01*
X5195570Y16865549D01*
X5195570Y16839031D01*
X5195722Y16838879D01*
X5223916Y16838879D01*
X5223916Y16865701D01*
X5251754Y16865701D01*
X5252669Y16866616D01*
X5252669Y16893336D01*
X5307126Y16893336D01*
X5307126Y16866616D01*
X5308041Y16865701D01*
X5363311Y16865701D01*
X5364226Y16866616D01*
X5364226Y16893184D01*
X5363311Y16894098D01*
X5307888Y16894098D01*
X5307888Y16921937D01*
X5306974Y16922851D01*
X5280304Y16922851D01*
X5280304Y16949674D01*
X5306974Y16949674D01*
X5307888Y16950588D01*
X5307888Y16977258D01*
X5335727Y16977258D01*
X5336641Y16978172D01*
X5336641Y17005858D01*
X5335727Y17006773D01*
X5307888Y17006773D01*
X5307888Y17061230D01*
X5335727Y17061230D01*
X5336641Y17062145D01*
X5336641Y17117568D01*
X5363464Y17117568D01*
X5363464Y17006925D01*
X5364378Y17006011D01*
X5390896Y17006011D01*
X5391861Y17006925D01*
X5391861Y17033595D01*
X5419801Y17033595D01*
X5419801Y16978020D01*
X5364378Y16978020D01*
X5363464Y16977106D01*
X5363464Y16950588D01*
X5363616Y16950436D01*
X5448198Y16950436D01*
X5448198Y17006011D01*
X5475020Y17006011D01*
X5475020Y16978172D01*
X5475935Y16977258D01*
X5503621Y16977258D01*
X5504535Y16978172D01*
X5504535Y17033595D01*
X5531205Y17033595D01*
X5532120Y17034560D01*
X5532120Y17061230D01*
X5642914Y17061230D01*
X5642914Y17034408D01*
X5588508Y17034408D01*
X5588508Y17061230D01*
X5558993Y17061230D01*
X5558993Y17006925D01*
X5559907Y17006011D01*
X5642914Y17006011D01*
X5642914Y16978020D01*
X5616244Y16978020D01*
X5615330Y16977106D01*
X5615330Y16950436D01*
X5559755Y16950436D01*
X5559755Y16977106D01*
X5558840Y16978020D01*
X5532272Y16978020D01*
X5531358Y16977106D01*
X5531358Y16922851D01*
X5504688Y16922851D01*
X5503926Y16922089D01*
X5642914Y16922089D01*
X5642914Y16894098D01*
X5616092Y16894098D01*
X5616092Y16922089D01*
X5558993Y16922089D01*
X5558993Y16894098D01*
X5532120Y16894098D01*
X5532120Y16922089D01*
X5503926Y16922089D01*
X5503773Y16921937D01*
X5503773Y16894098D01*
X5475782Y16894098D01*
X5475782Y16949521D01*
X5474868Y16950436D01*
X5363616Y16950436D01*
X5364378Y16949674D01*
X5391048Y16949674D01*
X5391048Y16894251D01*
X5392013Y16893336D01*
X5419801Y16893336D01*
X5419801Y16866463D01*
X5392013Y16866463D01*
X5391200Y16865701D01*
X5531358Y16865701D01*
X5531358Y16782542D01*
X5448198Y16782542D01*
X5448198Y16865701D01*
X5391200Y16865701D01*
X5391048Y16865549D01*
X5391048Y16839031D01*
X5392013Y16838117D01*
X5419801Y16838117D01*
X5419801Y16810126D01*
X5392013Y16810126D01*
X5391048Y16809212D01*
X5391048Y16782542D01*
X5364226Y16782542D01*
X5364226Y16837964D01*
X5363311Y16838879D01*
X5336794Y16838879D01*
X5335879Y16837964D01*
X5335879Y16810126D01*
X5307888Y16810126D01*
X5307888Y16837964D01*
X5306974Y16838879D01*
X5280456Y16838879D01*
X5279491Y16837964D01*
X5279491Y16810126D01*
X5252669Y16810126D01*
X5252669Y16837964D01*
X5251754Y16838879D01*
X5195722Y16838879D01*
X5196484Y16838117D01*
X5223154Y16838117D01*
X5223154Y16810278D01*
X5224068Y16809364D01*
X5251907Y16809364D01*
X5251907Y16782542D01*
X5196484Y16782542D01*
X5195570Y16781627D01*
X5195570Y16726306D01*
X5196484Y16725392D01*
X5223002Y16725392D01*
X5223916Y16726306D01*
X5223916Y16754144D01*
X5251754Y16754144D01*
X5252669Y16755059D01*
X5252669Y16781780D01*
X5307126Y16781780D01*
X5307126Y16754906D01*
X5280456Y16754906D01*
X5279491Y16753992D01*
X5279491Y16726154D01*
X5307888Y16726154D01*
X5307888Y16754144D01*
X5335727Y16754144D01*
X5336641Y16755059D01*
X5336641Y16781780D01*
X5363464Y16781780D01*
X5363464Y16755059D01*
X5364378Y16754144D01*
X5447436Y16754144D01*
X5447436Y16726154D01*
X5420715Y16726154D01*
X5419801Y16725239D01*
X5419801Y16698722D01*
X5419953Y16698569D01*
X5448198Y16698569D01*
X5448198Y16725392D01*
X5503621Y16725392D01*
X5504535Y16726306D01*
X5504535Y16754144D01*
X5558840Y16754144D01*
X5559755Y16755059D01*
X5559755Y16893336D01*
X5587746Y16893336D01*
X5587746Y16839031D01*
X5588660Y16838117D01*
X5642914Y16838117D01*
X5642914Y16782542D01*
X5616244Y16782542D01*
X5615330Y16781627D01*
X5615330Y16726154D01*
X5532272Y16726154D01*
X5531358Y16725239D01*
X5531358Y16698569D01*
X5419953Y16698569D01*
X5420715Y16697807D01*
X5587746Y16697807D01*
X5587746Y16670985D01*
X5559755Y16670985D01*
X5559755Y16697807D01*
X5447436Y16697807D01*
X5447436Y16670985D01*
X5391861Y16670985D01*
X5391861Y16725239D01*
X5390896Y16726154D01*
X5252821Y16726154D01*
X5251907Y16725239D01*
X5251907Y16698569D01*
X5196484Y16698569D01*
X5195570Y16697655D01*
X5195570Y16643502D01*
X5196484Y16642588D01*
X5279339Y16642588D01*
X5280304Y16643502D01*
X5280304Y16670070D01*
X5279339Y16670985D01*
X5252669Y16670985D01*
X5252669Y16697807D01*
X5363464Y16697807D01*
X5363464Y16643502D01*
X5364378Y16642588D01*
X5503621Y16642588D01*
X5504535Y16643502D01*
X5504535Y16670223D01*
X5558993Y16670223D01*
X5558993Y16643502D01*
X5559907Y16642588D01*
X5587593Y16642588D01*
X5588508Y16643502D01*
X5588508Y16670223D01*
X5642914Y16670223D01*
X5642914Y16643502D01*
X5643829Y16642588D01*
X5670397Y16642588D01*
X5671312Y16643502D01*
X5671312Y16753992D01*
X5670397Y16754906D01*
X5643676Y16754906D01*
X5643676Y16781780D01*
X5670397Y16781780D01*
X5671312Y16782694D01*
X5671312Y16837964D01*
X5670397Y16838879D01*
X5643676Y16838879D01*
X5643676Y16893336D01*
X5670397Y16893336D01*
X5671312Y16894251D01*
X5671312Y16949521D01*
X5670397Y16950436D01*
X5643676Y16950436D01*
X5643676Y16977258D01*
X5670397Y16977258D01*
X5671312Y16978172D01*
X5671312Y17061078D01*
X5670397Y17061992D01*
X5643676Y17061992D01*
X5643676Y17089983D01*
X5670397Y17089983D01*
X5671312Y17090898D01*
X5671312Y17117415D01*
X5670397Y17118330D01*
X5643829Y17118330D01*
X5642914Y17117415D01*
X5642914Y17090745D01*
X5504535Y17090745D01*
X5504535Y17117415D01*
X5503621Y17118330D01*
X5475935Y17118330D01*
X5475020Y17117415D01*
X5475020Y17090898D01*
X5475935Y17089983D01*
X5503773Y17089983D01*
X5503773Y17034408D01*
X5475782Y17034408D01*
X5475782Y17061078D01*
X5474868Y17061992D01*
X5420563Y17061992D01*
X5420563Y17089983D01*
X5447284Y17089983D01*
X5448198Y17090898D01*
X5448198Y17257725D01*
X5447284Y17258639D01*
X5420563Y17258639D01*
X5420563Y17285309D01*
X5419648Y17286274D01*
X5391861Y17286274D01*
X5391861Y17312944D01*
X5390896Y17313859D01*
X5307888Y17313859D01*
X5307888Y17341697D01*
X5306974Y17342612D01*
G37*
G36*
X5475935Y17342612D02*
G01*
X5475020Y17341697D01*
X5475020Y17313097D01*
X5642914Y17313097D01*
X5642914Y17174667D01*
X5504535Y17174667D01*
X5504535Y17313097D01*
X5475020Y17313097D01*
X5475020Y17146117D01*
X5475935Y17145152D01*
X5670397Y17145152D01*
X5671312Y17146117D01*
X5671312Y17341697D01*
X5670397Y17342612D01*
G37*
G36*
X5028590Y17286274D02*
G01*
X5027676Y17285309D01*
X5027676Y17202454D01*
X5028590Y17201540D01*
X5111445Y17201540D01*
X5112359Y17202454D01*
X5112359Y17285309D01*
X5111445Y17286274D01*
G37*
G36*
X5532272Y17286274D02*
G01*
X5531358Y17285309D01*
X5531358Y17202454D01*
X5532272Y17201540D01*
X5615178Y17201540D01*
X5616092Y17202454D01*
X5616092Y17285309D01*
X5615178Y17286274D01*
G37*
G36*
X4972202Y17118330D02*
G01*
X4971288Y17117415D01*
X4971288Y17062145D01*
X4972202Y17061230D01*
X5027676Y17061230D01*
X5027676Y17006773D01*
X5000802Y17006773D01*
X5000802Y17033443D01*
X4999888Y17034408D01*
X4972202Y17034408D01*
X4971288Y17033443D01*
X4971288Y16866616D01*
X4972202Y16865701D01*
X4999888Y16865701D01*
X5000802Y16866616D01*
X5000802Y16922089D01*
X5027523Y16922089D01*
X5028438Y16923004D01*
X5028438Y16949674D01*
X5055260Y16949674D01*
X5055260Y16923004D01*
X5056174Y16922089D01*
X5111445Y16922089D01*
X5112359Y16923004D01*
X5112359Y16949521D01*
X5111445Y16950436D01*
X5084775Y16950436D01*
X5084775Y16977106D01*
X5083860Y16978020D01*
X5028438Y16978020D01*
X5028438Y17006011D01*
X5055108Y17006011D01*
X5056022Y17006925D01*
X5056022Y17033595D01*
X5084013Y17033595D01*
X5084013Y17006925D01*
X5084927Y17006011D01*
X5111445Y17006011D01*
X5112359Y17006925D01*
X5112359Y17033443D01*
X5111445Y17034408D01*
X5084775Y17034408D01*
X5084775Y17089983D01*
X5111597Y17089983D01*
X5111597Y17062145D01*
X5112512Y17061230D01*
X5139232Y17061230D01*
X5139232Y17034560D01*
X5140147Y17033595D01*
X5167782Y17033595D01*
X5168747Y17034560D01*
X5168747Y17061078D01*
X5167782Y17061992D01*
X5139994Y17061992D01*
X5139994Y17089983D01*
X5167782Y17089983D01*
X5168747Y17090898D01*
X5168747Y17117415D01*
X5167782Y17118330D01*
X5140147Y17118330D01*
X5139232Y17117415D01*
X5139232Y17090745D01*
X5112359Y17090745D01*
X5112359Y17117415D01*
X5111445Y17118330D01*
X5056174Y17118330D01*
X5055260Y17117415D01*
X5055260Y17061992D01*
X5028438Y17061992D01*
X5028438Y17117415D01*
X5027523Y17118330D01*
G37*
G36*
X5028590Y16894098D02*
G01*
X5027676Y16893184D01*
X5027676Y16866616D01*
X5028590Y16865701D01*
X5083860Y16865701D01*
X5084775Y16866616D01*
X5084775Y16893184D01*
X5083860Y16894098D01*
G37*
G36*
X4972202Y16838879D02*
G01*
X4971288Y16837964D01*
X4971288Y16809364D01*
X5139232Y16809364D01*
X5139232Y16670985D01*
X5000802Y16670985D01*
X5000802Y16809364D01*
X4971288Y16809364D01*
X4971288Y16643502D01*
X4972202Y16642588D01*
X5167782Y16642588D01*
X5168747Y16643502D01*
X5168747Y16837964D01*
X5167782Y16838879D01*
G37*
G36*
X5475935Y16838879D02*
G01*
X5475020Y16837964D01*
X5475020Y16810278D01*
X5475935Y16809364D01*
X5503621Y16809364D01*
X5504535Y16810278D01*
X5504535Y16837964D01*
X5503621Y16838879D01*
G37*
G36*
X5028590Y16782542D02*
G01*
X5027676Y16781627D01*
X5027676Y16698722D01*
X5028590Y16697807D01*
X5111445Y16697807D01*
X5112359Y16698722D01*
X5112359Y16781627D01*
X5111445Y16782542D01*
G37*
G36*
X5308041Y16670985D02*
G01*
X5307126Y16670070D01*
X5307126Y16643502D01*
X5308041Y16642588D01*
X5335727Y16642588D01*
X5336641Y16643502D01*
X5336641Y16670070D01*
X5335727Y16670985D01*
G37*
D10*
X1630814Y15766168D02*
G01*
X1553763Y15689117D01*
X1553763Y15689117D02*
G01*
X1597766Y15645114D01*
X1699064Y15697918D02*
G01*
X1622013Y15620867D01*
X1699064Y15697918D02*
G01*
X1746839Y15650143D01*
X1662424Y15661279D02*
G01*
X1691878Y15631822D01*
X1622013Y15620867D02*
G01*
X1669788Y15573093D01*
X1771086Y15625897D02*
G01*
X1694035Y15548846D01*
X1771086Y15625897D02*
G01*
X1796948Y15600032D01*
X1804311Y15585485D01*
X1804311Y15570756D01*
X1800539Y15559801D01*
X1793176Y15544893D01*
X1774858Y15526575D01*
X1760128Y15519389D01*
X1749173Y15515617D01*
X1734446Y15515617D01*
X1719897Y15522981D01*
X1694035Y15548846D01*
X1832150Y15535374D02*
G01*
X1843285Y15531782D01*
X1865198Y15531782D01*
X1788147Y15454731D01*
X2151641Y15766041D02*
G01*
X2074590Y15688990D01*
X2074590Y15688990D02*
G01*
X2118593Y15644987D01*
X2219891Y15697791D02*
G01*
X2142840Y15620740D01*
X2219891Y15697791D02*
G01*
X2267666Y15650016D01*
X2183251Y15661152D02*
G01*
X2212705Y15631695D01*
X2142840Y15620740D02*
G01*
X2190615Y15572966D01*
X2291913Y15625770D02*
G01*
X2214862Y15548719D01*
X2291913Y15625770D02*
G01*
X2317775Y15599905D01*
X2325138Y15585358D01*
X2325138Y15570629D01*
X2321366Y15559674D01*
X2314003Y15544766D01*
X2295685Y15526448D01*
X2280955Y15519262D01*
X2270000Y15515490D01*
X2255273Y15515490D01*
X2240724Y15522854D01*
X2214862Y15548719D01*
X2352977Y15528063D02*
G01*
X2356571Y15531655D01*
X2367706Y15535247D01*
X2375070Y15535427D01*
X2386025Y15531655D01*
X2400752Y15516928D01*
X2404524Y15505973D01*
X2404346Y15498607D01*
X2400752Y15487472D01*
X2393388Y15480108D01*
X2382253Y15476517D01*
X2363934Y15472925D01*
X2290655Y15472925D01*
X2342022Y15421559D01*
X2685041Y15766041D02*
G01*
X2607990Y15688990D01*
X2607990Y15688990D02*
G01*
X2651993Y15644987D01*
X2753291Y15697791D02*
G01*
X2676240Y15620740D01*
X2753291Y15697791D02*
G01*
X2801066Y15650016D01*
X2716651Y15661152D02*
G01*
X2746105Y15631695D01*
X2676240Y15620740D02*
G01*
X2724015Y15572966D01*
X2825313Y15625770D02*
G01*
X2748262Y15548719D01*
X2825313Y15625770D02*
G01*
X2851175Y15599905D01*
X2858538Y15585358D01*
X2858538Y15570629D01*
X2854766Y15559674D01*
X2847403Y15544766D01*
X2829085Y15526448D01*
X2814355Y15519262D01*
X2803400Y15515490D01*
X2788673Y15515490D01*
X2774124Y15522854D01*
X2748262Y15548719D01*
X2908470Y15542613D02*
G01*
X2948881Y15502201D01*
X2897334Y15494838D01*
X2908289Y15483880D01*
X2912061Y15472925D01*
X2912242Y15465562D01*
X2904698Y15450832D01*
X2897334Y15443469D01*
X2882785Y15436105D01*
X2868058Y15436105D01*
X2853331Y15443649D01*
X2842374Y15454604D01*
X2835010Y15469153D01*
X2834830Y15476517D01*
X2838602Y15487472D01*
X4543043Y17498821D02*
G01*
X4532629Y17509236D01*
X4517136Y17514316D01*
X4496308Y17514316D01*
X4480813Y17509236D01*
X4470400Y17498821D01*
X4470400Y17488408D01*
X4475479Y17477994D01*
X4480813Y17472660D01*
X4491227Y17467579D01*
X4522470Y17457166D01*
X4532629Y17452086D01*
X4537963Y17446752D01*
X4543043Y17436337D01*
X4543043Y17420844D01*
X4532629Y17410429D01*
X4517136Y17405350D01*
X4496308Y17405350D01*
X4480813Y17410429D01*
X4470400Y17420844D01*
X4577334Y17514316D02*
G01*
X4603495Y17405350D01*
X4629404Y17514316D02*
G01*
X4603495Y17405350D01*
X4629404Y17514316D02*
G01*
X4655311Y17405350D01*
X4681220Y17514316D02*
G01*
X4655311Y17405350D01*
X4715509Y17493487D02*
G01*
X4725924Y17498821D01*
X4741672Y17514316D01*
X4741672Y17405350D01*
X6498843Y17511521D02*
G01*
X6488429Y17521936D01*
X6472936Y17527016D01*
X6452108Y17527016D01*
X6436613Y17521936D01*
X6426200Y17511521D01*
X6426200Y17501108D01*
X6431279Y17490694D01*
X6436613Y17485360D01*
X6447027Y17480279D01*
X6478270Y17469866D01*
X6488429Y17464786D01*
X6493763Y17459452D01*
X6498843Y17449037D01*
X6498843Y17433544D01*
X6488429Y17423129D01*
X6472936Y17418050D01*
X6452108Y17418050D01*
X6436613Y17423129D01*
X6426200Y17433544D01*
X6533134Y17527016D02*
G01*
X6559295Y17418050D01*
X6585204Y17527016D02*
G01*
X6559295Y17418050D01*
X6585204Y17527016D02*
G01*
X6611111Y17418050D01*
X6637020Y17527016D02*
G01*
X6611111Y17418050D01*
X6676643Y17501108D02*
G01*
X6676643Y17506187D01*
X6681724Y17516602D01*
X6687058Y17521936D01*
X6697472Y17527016D01*
X6718300Y17527016D01*
X6728459Y17521936D01*
X6733793Y17516602D01*
X6738874Y17506187D01*
X6738874Y17495774D01*
X6733793Y17485360D01*
X6723379Y17469866D01*
X6671309Y17418050D01*
X6744208Y17418050D01*
X8568943Y17511521D02*
G01*
X8558529Y17521936D01*
X8543036Y17527016D01*
X8522208Y17527016D01*
X8506713Y17521936D01*
X8496300Y17511521D01*
X8496300Y17501108D01*
X8501379Y17490694D01*
X8506713Y17485360D01*
X8517127Y17480279D01*
X8548370Y17469866D01*
X8558529Y17464786D01*
X8563863Y17459452D01*
X8568943Y17449037D01*
X8568943Y17433544D01*
X8558529Y17423129D01*
X8543036Y17418050D01*
X8522208Y17418050D01*
X8506713Y17423129D01*
X8496300Y17433544D01*
X8603234Y17527016D02*
G01*
X8629395Y17418050D01*
X8655304Y17527016D02*
G01*
X8629395Y17418050D01*
X8655304Y17527016D02*
G01*
X8681211Y17418050D01*
X8707120Y17527016D02*
G01*
X8681211Y17418050D01*
X8751824Y17527016D02*
G01*
X8808974Y17527016D01*
X8777986Y17485360D01*
X8793479Y17485360D01*
X8803893Y17480279D01*
X8808974Y17475200D01*
X8814308Y17459452D01*
X8814308Y17449037D01*
X8808974Y17433544D01*
X8798559Y17423129D01*
X8783065Y17418050D01*
X8767572Y17418050D01*
X8751824Y17423129D01*
X8746743Y17428210D01*
X8741409Y17438624D01*
X4543043Y15733521D02*
G01*
X4532629Y15743936D01*
X4517136Y15749016D01*
X4496308Y15749016D01*
X4480813Y15743936D01*
X4470400Y15733521D01*
X4470400Y15723107D01*
X4475479Y15712694D01*
X4480813Y15707360D01*
X4491227Y15702279D01*
X4522470Y15691866D01*
X4532629Y15686786D01*
X4537963Y15681452D01*
X4543043Y15671037D01*
X4543043Y15655544D01*
X4532629Y15645129D01*
X4517136Y15640050D01*
X4496308Y15640050D01*
X4480813Y15645129D01*
X4470400Y15655544D01*
X4577334Y15749016D02*
G01*
X4603495Y15640050D01*
X4629404Y15749016D02*
G01*
X4603495Y15640050D01*
X4629404Y15749016D02*
G01*
X4655311Y15640050D01*
X4681220Y15749016D02*
G01*
X4655311Y15640050D01*
X4767579Y15749016D02*
G01*
X4715509Y15676371D01*
X4793488Y15676371D01*
X4767579Y15749016D02*
G01*
X4767579Y15640050D01*
X6524243Y15746221D02*
G01*
X6513829Y15756636D01*
X6498336Y15761716D01*
X6477508Y15761716D01*
X6462013Y15756636D01*
X6451600Y15746221D01*
X6451600Y15735807D01*
X6456679Y15725394D01*
X6462013Y15720060D01*
X6472427Y15714979D01*
X6503670Y15704566D01*
X6513829Y15699486D01*
X6519163Y15694152D01*
X6524243Y15683737D01*
X6524243Y15668244D01*
X6513829Y15657829D01*
X6498336Y15652750D01*
X6477508Y15652750D01*
X6462013Y15657829D01*
X6451600Y15668244D01*
X6558534Y15761716D02*
G01*
X6584695Y15652750D01*
X6610604Y15761716D02*
G01*
X6584695Y15652750D01*
X6610604Y15761716D02*
G01*
X6636511Y15652750D01*
X6662420Y15761716D02*
G01*
X6636511Y15652750D01*
X6759193Y15761716D02*
G01*
X6707124Y15761716D01*
X6702043Y15714979D01*
X6707124Y15720060D01*
X6722872Y15725394D01*
X6738365Y15725394D01*
X6753859Y15720060D01*
X6764274Y15709900D01*
X6769608Y15694152D01*
X6769608Y15683737D01*
X6764274Y15668244D01*
X6753859Y15657829D01*
X6738365Y15652750D01*
X6722872Y15652750D01*
X6707124Y15657829D01*
X6702043Y15662910D01*
X6696709Y15673324D01*
X8530843Y15746221D02*
G01*
X8520429Y15756636D01*
X8504936Y15761716D01*
X8484108Y15761716D01*
X8468613Y15756636D01*
X8458200Y15746221D01*
X8458200Y15735807D01*
X8463279Y15725394D01*
X8468613Y15720060D01*
X8479027Y15714979D01*
X8510270Y15704566D01*
X8520429Y15699486D01*
X8525763Y15694152D01*
X8530843Y15683737D01*
X8530843Y15668244D01*
X8520429Y15657829D01*
X8504936Y15652750D01*
X8484108Y15652750D01*
X8468613Y15657829D01*
X8458200Y15668244D01*
X8565134Y15761716D02*
G01*
X8591295Y15652750D01*
X8617204Y15761716D02*
G01*
X8591295Y15652750D01*
X8617204Y15761716D02*
G01*
X8643111Y15652750D01*
X8669020Y15761716D02*
G01*
X8643111Y15652750D01*
X8765793Y15746221D02*
G01*
X8760459Y15756636D01*
X8744965Y15761716D01*
X8734552Y15761716D01*
X8719058Y15756636D01*
X8708643Y15740887D01*
X8703309Y15714979D01*
X8703309Y15689071D01*
X8708643Y15668244D01*
X8719058Y15657829D01*
X8734552Y15652750D01*
X8739886Y15652750D01*
X8755379Y15657829D01*
X8765793Y15668244D01*
X8770874Y15683737D01*
X8770874Y15689071D01*
X8765793Y15704566D01*
X8755379Y15714979D01*
X8739886Y15720060D01*
X8734552Y15720060D01*
X8719058Y15714979D01*
X8708643Y15704566D01*
X8703309Y15689071D01*
X2371343Y13955521D02*
G01*
X2360929Y13965936D01*
X2345436Y13971016D01*
X2324608Y13971016D01*
X2309113Y13965936D01*
X2298700Y13955521D01*
X2298700Y13945107D01*
X2303779Y13934694D01*
X2309113Y13929360D01*
X2319527Y13924279D01*
X2350770Y13913866D01*
X2360929Y13908786D01*
X2366263Y13903452D01*
X2371343Y13893037D01*
X2371343Y13877544D01*
X2360929Y13867129D01*
X2345436Y13862050D01*
X2324608Y13862050D01*
X2309113Y13867129D01*
X2298700Y13877544D01*
X2405634Y13971016D02*
G01*
X2431795Y13862050D01*
X2457704Y13971016D02*
G01*
X2431795Y13862050D01*
X2457704Y13971016D02*
G01*
X2483611Y13862050D01*
X2509520Y13971016D02*
G01*
X2483611Y13862050D01*
X2616708Y13971016D02*
G01*
X2564638Y13862050D01*
X2543809Y13971016D02*
G01*
X2616708Y13971016D01*
X4492256Y14006321D02*
G01*
X4481842Y14016736D01*
X4466348Y14021816D01*
X4445520Y14021816D01*
X4430026Y14016736D01*
X4419612Y14006321D01*
X4419612Y13995907D01*
X4424692Y13985494D01*
X4430026Y13980160D01*
X4440440Y13975079D01*
X4471682Y13964666D01*
X4481842Y13959586D01*
X4487176Y13954252D01*
X4492256Y13943837D01*
X4492256Y13928344D01*
X4481842Y13917929D01*
X4466348Y13912850D01*
X4445520Y13912850D01*
X4430026Y13917929D01*
X4419612Y13928344D01*
X4526546Y14021816D02*
G01*
X4552708Y13912850D01*
X4578616Y14021816D02*
G01*
X4552708Y13912850D01*
X4578616Y14021816D02*
G01*
X4604524Y13912850D01*
X4630432Y14021816D02*
G01*
X4604524Y13912850D01*
X4690884Y14021816D02*
G01*
X4675136Y14016736D01*
X4670056Y14006321D01*
X4670056Y13995907D01*
X4675136Y13985494D01*
X4685550Y13980160D01*
X4706378Y13975079D01*
X4721872Y13970000D01*
X4732286Y13959586D01*
X4737620Y13949171D01*
X4737620Y13933424D01*
X4732286Y13923010D01*
X4727206Y13917929D01*
X4711712Y13912850D01*
X4690884Y13912850D01*
X4675136Y13917929D01*
X4670056Y13923010D01*
X4664722Y13933424D01*
X4664722Y13949171D01*
X4670056Y13959586D01*
X4680470Y13970000D01*
X4695964Y13975079D01*
X4716792Y13980160D01*
X4727206Y13985494D01*
X4732286Y13995907D01*
X4732286Y14006321D01*
X4727206Y14016736D01*
X4711712Y14021816D01*
X4690884Y14021816D01*
X6498856Y14006321D02*
G01*
X6488442Y14016736D01*
X6472948Y14021816D01*
X6452120Y14021816D01*
X6436626Y14016736D01*
X6426212Y14006321D01*
X6426212Y13995907D01*
X6431292Y13985494D01*
X6436626Y13980160D01*
X6447040Y13975079D01*
X6478282Y13964666D01*
X6488442Y13959586D01*
X6493776Y13954252D01*
X6498856Y13943837D01*
X6498856Y13928344D01*
X6488442Y13917929D01*
X6472948Y13912850D01*
X6452120Y13912850D01*
X6436626Y13917929D01*
X6426212Y13928344D01*
X6533146Y14021816D02*
G01*
X6559308Y13912850D01*
X6585216Y14021816D02*
G01*
X6559308Y13912850D01*
X6585216Y14021816D02*
G01*
X6611124Y13912850D01*
X6637032Y14021816D02*
G01*
X6611124Y13912850D01*
X6738886Y13985494D02*
G01*
X6733806Y13970000D01*
X6723392Y13959586D01*
X6707898Y13954252D01*
X6702564Y13954252D01*
X6687070Y13959586D01*
X6676656Y13970000D01*
X6671322Y13985494D01*
X6671322Y13990574D01*
X6676656Y14006321D01*
X6687070Y14016736D01*
X6702564Y14021816D01*
X6707898Y14021816D01*
X6723392Y14016736D01*
X6733806Y14006321D01*
X6738886Y13985494D01*
X6738886Y13959586D01*
X6733806Y13933424D01*
X6723392Y13917929D01*
X6707898Y13912850D01*
X6697484Y13912850D01*
X6681736Y13917929D01*
X6676656Y13928344D01*
X8480056Y14006321D02*
G01*
X8469642Y14016736D01*
X8454148Y14021816D01*
X8433320Y14021816D01*
X8417826Y14016736D01*
X8407412Y14006321D01*
X8407412Y13995907D01*
X8412492Y13985494D01*
X8417826Y13980160D01*
X8428240Y13975079D01*
X8459482Y13964666D01*
X8469642Y13959586D01*
X8474976Y13954252D01*
X8480056Y13943837D01*
X8480056Y13928344D01*
X8469642Y13917929D01*
X8454148Y13912850D01*
X8433320Y13912850D01*
X8417826Y13917929D01*
X8407412Y13928344D01*
X8514346Y14021816D02*
G01*
X8540508Y13912850D01*
X8566416Y14021816D02*
G01*
X8540508Y13912850D01*
X8566416Y14021816D02*
G01*
X8592324Y13912850D01*
X8618232Y14021816D02*
G01*
X8592324Y13912850D01*
X8652522Y14000987D02*
G01*
X8662936Y14006321D01*
X8678684Y14021816D01*
X8678684Y13912850D01*
X8743962Y14021816D02*
G01*
X8728468Y14016736D01*
X8718054Y14000987D01*
X8712974Y13975079D01*
X8712974Y13959586D01*
X8718054Y13933424D01*
X8728468Y13917929D01*
X8743962Y13912850D01*
X8754376Y13912850D01*
X8770124Y13917929D01*
X8780538Y13933424D01*
X8785618Y13959586D01*
X8785618Y13975079D01*
X8780538Y14000987D01*
X8770124Y14016736D01*
X8754376Y14021816D01*
X8743962Y14021816D01*
X2133587Y18788011D02*
G01*
X2133587Y18710033D01*
X2138667Y18694539D01*
X2149081Y18684125D01*
X2164829Y18679045D01*
X2175243Y18679045D01*
X2190737Y18684125D01*
X2201151Y18694539D01*
X2206231Y18710033D01*
X2206231Y18788011D01*
X2240521Y18767183D02*
G01*
X2250935Y18772517D01*
X2266683Y18788011D01*
X2266683Y18679045D01*
X2311387Y18788011D02*
G01*
X2368537Y18788011D01*
X2337295Y18746355D01*
X2352789Y18746355D01*
X2363203Y18741275D01*
X2368537Y18736195D01*
X2373617Y18720447D01*
X2373617Y18710033D01*
X2368537Y18694539D01*
X2358123Y18684125D01*
X2342375Y18679045D01*
X2326881Y18679045D01*
X2311387Y18684125D01*
X2306053Y18689205D01*
X2300973Y18699619D01*
X4254500Y14974316D02*
G01*
X4254500Y14865350D01*
X4254500Y14974316D02*
G01*
X4301236Y14974316D01*
X4316729Y14969236D01*
X4322063Y14963902D01*
X4327143Y14953487D01*
X4327143Y14943074D01*
X4322063Y14932660D01*
X4316729Y14927579D01*
X4301236Y14922500D01*
X4254500Y14922500D01*
X4290822Y14922500D02*
G01*
X4327143Y14865350D01*
X4361434Y14953487D02*
G01*
X4371847Y14958821D01*
X4387595Y14974316D01*
X4387595Y14865350D01*
X6235700Y14948916D02*
G01*
X6235700Y14839950D01*
X6235700Y14948916D02*
G01*
X6282436Y14948916D01*
X6297929Y14943836D01*
X6303263Y14938502D01*
X6308343Y14928087D01*
X6308343Y14917674D01*
X6303263Y14907260D01*
X6297929Y14902179D01*
X6282436Y14897100D01*
X6235700Y14897100D01*
X6272022Y14897100D02*
G01*
X6308343Y14839950D01*
X6347968Y14923007D02*
G01*
X6347968Y14928087D01*
X6353047Y14938502D01*
X6358381Y14943836D01*
X6368795Y14948916D01*
X6389370Y14948916D01*
X6399784Y14943836D01*
X6405118Y14938502D01*
X6410197Y14928087D01*
X6410197Y14917674D01*
X6405118Y14907260D01*
X6394704Y14891766D01*
X6342634Y14839950D01*
X6415531Y14839950D01*
X8305800Y14936216D02*
G01*
X8305800Y14827250D01*
X8305800Y14936216D02*
G01*
X8352536Y14936216D01*
X8368029Y14931136D01*
X8373363Y14925802D01*
X8378443Y14915387D01*
X8378443Y14904974D01*
X8373363Y14894560D01*
X8368029Y14889479D01*
X8352536Y14884400D01*
X8305800Y14884400D01*
X8342122Y14884400D02*
G01*
X8378443Y14827250D01*
X8423147Y14936216D02*
G01*
X8480297Y14936216D01*
X8449309Y14894560D01*
X8464804Y14894560D01*
X8475218Y14889479D01*
X8480297Y14884400D01*
X8485631Y14868652D01*
X8485631Y14858237D01*
X8480297Y14842744D01*
X8469884Y14832329D01*
X8454390Y14827250D01*
X8438895Y14827250D01*
X8423147Y14832329D01*
X8418068Y14837410D01*
X8412734Y14847824D01*
D11*
X1624296Y15489814D02*
G01*
X1567728Y15489814D01*
X1553585Y15489814D01*
X1553568Y15475653D01*
X1553568Y15419085D01*
X1624296Y15489814D02*
G01*
X1553568Y15419085D01*
X1534208Y15365326D02*
G01*
X1643768Y15255768D01*
X1787451Y15399451D01*
X1677893Y15509011D01*
X1476735Y15419209D02*
G01*
X1372565Y15523380D01*
X1372565Y15580852D01*
X1462366Y15670656D01*
X1516247Y15670656D01*
X1624012Y15562892D01*
X2157823Y15489687D02*
G01*
X2101255Y15489687D01*
X2087112Y15489687D01*
X2087095Y15475526D01*
X2087095Y15418958D01*
X2157823Y15489687D02*
G01*
X2087095Y15418958D01*
X2067735Y15365199D02*
G01*
X2177295Y15255641D01*
X2320978Y15399324D01*
X2211420Y15508884D01*
X2010262Y15419082D02*
G01*
X1906092Y15523253D01*
X1906092Y15580725D01*
X1995893Y15670529D01*
X2049774Y15670529D01*
X2157539Y15562765D01*
X2691096Y15489814D02*
G01*
X2634528Y15489814D01*
X2620385Y15489814D01*
X2620368Y15475653D01*
X2620368Y15419085D01*
X2691096Y15489814D02*
G01*
X2620368Y15419085D01*
X2601008Y15365326D02*
G01*
X2710568Y15255768D01*
X2854251Y15399451D01*
X2744693Y15509011D01*
X2543535Y15419209D02*
G01*
X2439365Y15523380D01*
X2439365Y15580852D01*
X2529166Y15670656D01*
X2583047Y15670656D01*
X2690812Y15562892D01*
X4905291Y17488054D02*
G01*
X4905291Y17266389D01*
X4905291Y17988053D02*
G01*
X4905291Y17749674D01*
X4905291Y18466386D02*
G01*
X4905291Y18249673D01*
X3705293Y17488054D02*
G01*
X3705293Y17266389D01*
X3705293Y17988053D02*
G01*
X3705293Y17749674D01*
X3705293Y18466386D02*
G01*
X3705293Y18249673D01*
X3705293Y18466386D02*
G01*
X4905291Y18466386D01*
X4905291Y17266389D02*
G01*
X3705293Y17266389D01*
X3822692Y18374387D02*
G01*
X4787892Y18374387D01*
X4813292Y18348987D01*
X4813292Y17383787D01*
X4787892Y17358387D01*
X3822692Y17358387D01*
X3797292Y17383787D01*
X3797292Y18348987D01*
X3822692Y18374387D01*
X6937286Y17488054D02*
G01*
X6937286Y17266389D01*
X6937286Y17988053D02*
G01*
X6937286Y17749674D01*
X6937286Y18466386D02*
G01*
X6937286Y18249673D01*
X5737288Y17488054D02*
G01*
X5737288Y17266389D01*
X5737288Y17988053D02*
G01*
X5737288Y17749674D01*
X5737288Y18466386D02*
G01*
X5737288Y18249673D01*
X5737288Y18466386D02*
G01*
X6937286Y18466386D01*
X6937286Y17266389D02*
G01*
X5737288Y17266389D01*
X5854687Y18374387D02*
G01*
X6819887Y18374387D01*
X6845287Y18348987D01*
X6845287Y17383787D01*
X6819887Y17358387D01*
X5854687Y17358387D01*
X5829287Y17383787D01*
X5829287Y18348987D01*
X5854687Y18374387D01*
X8956581Y17488090D02*
G01*
X8956581Y17266424D01*
X8956581Y17988089D02*
G01*
X8956581Y17749710D01*
X8956581Y18466422D02*
G01*
X8956581Y18249709D01*
X7756583Y17488090D02*
G01*
X7756583Y17266424D01*
X7756583Y17988089D02*
G01*
X7756583Y17749710D01*
X7756583Y18466422D02*
G01*
X7756583Y18249709D01*
X7756583Y18466422D02*
G01*
X8956581Y18466422D01*
X8956581Y17266424D02*
G01*
X7756583Y17266424D01*
X7873982Y18374423D02*
G01*
X8839182Y18374423D01*
X8864582Y18349023D01*
X8864582Y17383823D01*
X8839182Y17358423D01*
X7873982Y17358423D01*
X7848582Y17383823D01*
X7848582Y18349023D01*
X7873982Y18374423D01*
X4905316Y15748223D02*
G01*
X4905316Y15526557D01*
X4905316Y16248222D02*
G01*
X4905316Y16009843D01*
X4905316Y16726555D02*
G01*
X4905316Y16509842D01*
X3705318Y15748223D02*
G01*
X3705318Y15526557D01*
X3705318Y16248222D02*
G01*
X3705318Y16009843D01*
X3705318Y16726555D02*
G01*
X3705318Y16509842D01*
X3705318Y16726555D02*
G01*
X4905316Y16726555D01*
X4905316Y15526557D02*
G01*
X3705318Y15526557D01*
X3822717Y16634556D02*
G01*
X4787917Y16634556D01*
X4813317Y16609156D01*
X4813317Y15643956D01*
X4787917Y15618556D01*
X3822717Y15618556D01*
X3797317Y15643956D01*
X3797317Y16609156D01*
X3822717Y16634556D01*
X6937303Y15748190D02*
G01*
X6937303Y15526524D01*
X6937303Y16248189D02*
G01*
X6937303Y16009810D01*
X6937303Y16726522D02*
G01*
X6937303Y16509809D01*
X5737306Y15748190D02*
G01*
X5737306Y15526524D01*
X5737306Y16248189D02*
G01*
X5737306Y16009810D01*
X5737306Y16726522D02*
G01*
X5737306Y16509809D01*
X5737306Y16726522D02*
G01*
X6937303Y16726522D01*
X6937303Y15526524D02*
G01*
X5737306Y15526524D01*
X5854705Y16634523D02*
G01*
X6819905Y16634523D01*
X6845305Y16609123D01*
X6845305Y15643923D01*
X6819905Y15618523D01*
X5854705Y15618523D01*
X5829305Y15643923D01*
X5829305Y16609123D01*
X5854705Y16634523D01*
X8956598Y15748190D02*
G01*
X8956598Y15526524D01*
X8956598Y16248189D02*
G01*
X8956598Y16009810D01*
X8956598Y16726522D02*
G01*
X8956598Y16509809D01*
X7756601Y15748190D02*
G01*
X7756601Y15526524D01*
X7756601Y16248189D02*
G01*
X7756601Y16009810D01*
X7756601Y16726522D02*
G01*
X7756601Y16509809D01*
X7756601Y16726522D02*
G01*
X8956598Y16726522D01*
X8956598Y15526524D02*
G01*
X7756601Y15526524D01*
X7874000Y16634523D02*
G01*
X8839200Y16634523D01*
X8864600Y16609123D01*
X8864600Y15643923D01*
X8839200Y15618523D01*
X7874000Y15618523D01*
X7848600Y15643923D01*
X7848600Y16609123D01*
X7874000Y16634523D01*
X2771698Y14008262D02*
G01*
X2771698Y13786596D01*
X2771698Y14508261D02*
G01*
X2771698Y14269882D01*
X2771698Y14986594D02*
G01*
X2771698Y14769881D01*
X1571701Y14008262D02*
G01*
X1571701Y13786596D01*
X1571701Y14508261D02*
G01*
X1571701Y14269882D01*
X1571701Y14986594D02*
G01*
X1571701Y14769881D01*
X1571701Y14986594D02*
G01*
X2771698Y14986594D01*
X2771698Y13786596D02*
G01*
X1571701Y13786596D01*
X1689100Y14894595D02*
G01*
X2654300Y14894595D01*
X2679700Y14869195D01*
X2679700Y13903995D01*
X2654300Y13878595D01*
X1689100Y13878595D01*
X1663700Y13903995D01*
X1663700Y14869195D01*
X1689100Y14894595D01*
X4892603Y14008262D02*
G01*
X4892603Y13786596D01*
X4892603Y14508261D02*
G01*
X4892603Y14269882D01*
X4892603Y14986594D02*
G01*
X4892603Y14769881D01*
X3692606Y14008262D02*
G01*
X3692606Y13786596D01*
X3692606Y14508261D02*
G01*
X3692606Y14269882D01*
X3692606Y14986594D02*
G01*
X3692606Y14769881D01*
X3692606Y14986594D02*
G01*
X4892603Y14986594D01*
X4892603Y13786596D02*
G01*
X3692606Y13786596D01*
X3810005Y14894595D02*
G01*
X4775205Y14894595D01*
X4800605Y14869195D01*
X4800605Y13903995D01*
X4775205Y13878595D01*
X3810005Y13878595D01*
X3784605Y13903995D01*
X3784605Y14869195D01*
X3810005Y14894595D01*
X6924598Y14008290D02*
G01*
X6924598Y13786624D01*
X6924598Y14508289D02*
G01*
X6924598Y14269910D01*
X6924598Y14986622D02*
G01*
X6924598Y14769909D01*
X5724601Y14008290D02*
G01*
X5724601Y13786624D01*
X5724601Y14508289D02*
G01*
X5724601Y14269910D01*
X5724601Y14986622D02*
G01*
X5724601Y14769909D01*
X5724601Y14986622D02*
G01*
X6924598Y14986622D01*
X6924598Y13786624D02*
G01*
X5724601Y13786624D01*
X5842000Y14894623D02*
G01*
X6807200Y14894623D01*
X6832600Y14869223D01*
X6832600Y13904023D01*
X6807200Y13878623D01*
X5842000Y13878623D01*
X5816600Y13904023D01*
X5816600Y14869223D01*
X5842000Y14894623D01*
X8943893Y14008262D02*
G01*
X8943893Y13786596D01*
X8943893Y14508261D02*
G01*
X8943893Y14269882D01*
X8943893Y14986594D02*
G01*
X8943893Y14769881D01*
X7743896Y14008262D02*
G01*
X7743896Y13786596D01*
X7743896Y14508261D02*
G01*
X7743896Y14269882D01*
X7743896Y14986594D02*
G01*
X7743896Y14769881D01*
X7743896Y14986594D02*
G01*
X8943893Y14986594D01*
X8943893Y13786596D02*
G01*
X7743896Y13786596D01*
X7861294Y14894595D02*
G01*
X8826494Y14894595D01*
X8851894Y14869195D01*
X8851894Y13903995D01*
X8826494Y13878595D01*
X7861294Y13878595D01*
X7835894Y13903995D01*
X7835894Y14869195D01*
X7861294Y14894595D01*
X2581732Y18476592D02*
G01*
X2581732Y18626592D01*
X1685625Y18626592D01*
X1685625Y18476592D02*
G01*
X1685625Y18626592D01*
X1542475Y16126597D02*
G01*
X1233594Y16126597D01*
X1796475Y16126597D02*
G01*
X1708703Y16126597D01*
X2050475Y16126597D02*
G01*
X1962703Y16126597D01*
X2304473Y16126597D02*
G01*
X2216703Y16126597D01*
X2558473Y16126597D02*
G01*
X2470701Y16126597D01*
X3033590Y16201984D02*
G01*
X3033590Y16126597D01*
X2724701Y16126597D01*
X3033590Y16455981D02*
G01*
X3033590Y16368212D01*
X3033590Y16709981D02*
G01*
X3033590Y16622209D01*
X3033590Y16963981D02*
G01*
X3033590Y16876209D01*
X3033590Y17217981D02*
G01*
X3033590Y17130209D01*
X3033590Y17471981D02*
G01*
X3033590Y17384209D01*
X3033590Y17725979D02*
G01*
X3033590Y17638209D01*
X3033590Y17979979D02*
G01*
X3033590Y17892207D01*
X3033590Y18233979D02*
G01*
X3033590Y18146207D01*
X1233594Y18400209D02*
G01*
X1233594Y18476592D01*
X3033590Y18476592D01*
X3033590Y18400207D01*
X1233594Y18146209D02*
G01*
X1233594Y18233981D01*
X1233594Y17892209D02*
G01*
X1233594Y17979981D01*
X1233594Y17638212D02*
G01*
X1233594Y17725981D01*
X1233594Y17384212D02*
G01*
X1233594Y17471984D01*
X1233594Y17130212D02*
G01*
X1233594Y17217984D01*
X1233594Y16876212D02*
G01*
X1233594Y16963984D01*
X1233594Y16622212D02*
G01*
X1233594Y16709984D01*
X1233594Y16368214D02*
G01*
X1233594Y16455984D01*
X1233594Y16126597D02*
G01*
X1233594Y16201986D01*
D10*
X4413120Y15119390D02*
G01*
X4549112Y15119390D01*
X4549112Y15335209D01*
X4413120Y15335209D01*
X4222879Y15119390D02*
G01*
X4086887Y15119390D01*
X4086887Y15335209D01*
X4222879Y15335209D01*
X6432420Y15132090D02*
G01*
X6568412Y15132090D01*
X6568412Y15347909D01*
X6432420Y15347909D01*
X6242179Y15132090D02*
G01*
X6106187Y15132090D01*
X6106187Y15347909D01*
X6242179Y15347909D01*
X8464420Y15132090D02*
G01*
X8600412Y15132090D01*
X8600412Y15347909D01*
X8464420Y15347909D01*
X8274179Y15132090D02*
G01*
X8138187Y15132090D01*
X8138187Y15347909D01*
X8274179Y15347909D01*
D11*
G75*
G01
X4605299Y17866385D02*
G03X4605299Y17866385I-299999J0D01*
G75*
G01
X4635500Y17866385D02*
G03X4635500Y17866385I-330200J0D01*
G75*
G01
X4762500Y17485385D02*
G03X4762500Y17485385I-76200J0D01*
G75*
G01
X4000500Y17485385D02*
G03X4000500Y17485385I-76200J0D01*
G75*
G01
X4762500Y18247385D02*
G03X4762500Y18247385I-76200J0D01*
G75*
G01
X4000500Y18247385D02*
G03X4000500Y18247385I-76200J0D01*
G75*
G01
X6637299Y17866385D02*
G03X6637299Y17866385I-299999J0D01*
G75*
G01
X6667500Y17866385D02*
G03X6667500Y17866385I-330200J0D01*
G75*
G01
X6794500Y17485385D02*
G03X6794500Y17485385I-76200J0D01*
G75*
G01
X6032500Y17485385D02*
G03X6032500Y17485385I-76200J0D01*
G75*
G01
X6794500Y18247385D02*
G03X6794500Y18247385I-76200J0D01*
G75*
G01
X6032500Y18247385D02*
G03X6032500Y18247385I-76200J0D01*
G75*
G01
X8656574Y17866411D02*
G03X8656574Y17866411I-299999J0D01*
G75*
G01
X8686775Y17866411D02*
G03X8686775Y17866411I-330200J0D01*
G75*
G01
X8813775Y17485411D02*
G03X8813775Y17485411I-76200J0D01*
G75*
G01
X8051775Y17485411D02*
G03X8051775Y17485411I-76200J0D01*
G75*
G01
X8813775Y18247411D02*
G03X8813775Y18247411I-76200J0D01*
G75*
G01
X8051775Y18247411D02*
G03X8051775Y18247411I-76200J0D01*
G75*
G01
X4605325Y16126562D02*
G03X4605325Y16126562I-299999J0D01*
G75*
G01
X4635525Y16126562D02*
G03X4635525Y16126562I-330200J0D01*
G75*
G01
X4762525Y15745562D02*
G03X4762525Y15745562I-76200J0D01*
G75*
G01
X4000525Y15745562D02*
G03X4000525Y15745562I-76200J0D01*
G75*
G01
X4762525Y16507562D02*
G03X4762525Y16507562I-76200J0D01*
G75*
G01
X4000525Y16507562D02*
G03X4000525Y16507562I-76200J0D01*
G75*
G01
X6637299Y16126511D02*
G03X6637299Y16126511I-299999J0D01*
G75*
G01
X6667500Y16126511D02*
G03X6667500Y16126511I-330200J0D01*
G75*
G01
X6794500Y15745511D02*
G03X6794500Y15745511I-76200J0D01*
G75*
G01
X6032500Y15745511D02*
G03X6032500Y15745511I-76200J0D01*
G75*
G01
X6794500Y16507511D02*
G03X6794500Y16507511I-76200J0D01*
G75*
G01
X6032500Y16507511D02*
G03X6032500Y16507511I-76200J0D01*
G75*
G01
X8656599Y16126511D02*
G03X8656599Y16126511I-299999J0D01*
G75*
G01
X8686800Y16126511D02*
G03X8686800Y16126511I-330200J0D01*
G75*
G01
X8813800Y15745511D02*
G03X8813800Y15745511I-76200J0D01*
G75*
G01
X8051800Y15745511D02*
G03X8051800Y15745511I-76200J0D01*
G75*
G01
X8813800Y16507511D02*
G03X8813800Y16507511I-76200J0D01*
G75*
G01
X8051800Y16507511D02*
G03X8051800Y16507511I-76200J0D01*
G75*
G01
X2471699Y14386585D02*
G03X2471699Y14386585I-299999J0D01*
G75*
G01
X2501900Y14386585D02*
G03X2501900Y14386585I-330200J0D01*
G75*
G01
X2628900Y14005585D02*
G03X2628900Y14005585I-76200J0D01*
G75*
G01
X1866900Y14005585D02*
G03X1866900Y14005585I-76200J0D01*
G75*
G01
X2628900Y14767585D02*
G03X2628900Y14767585I-76200J0D01*
G75*
G01
X1866900Y14767585D02*
G03X1866900Y14767585I-76200J0D01*
G75*
G01
X4592599Y14386585D02*
G03X4592599Y14386585I-299999J0D01*
G75*
G01
X4622800Y14386585D02*
G03X4622800Y14386585I-330200J0D01*
G75*
G01
X4749800Y14005585D02*
G03X4749800Y14005585I-76200J0D01*
G75*
G01
X3987800Y14005585D02*
G03X3987800Y14005585I-76200J0D01*
G75*
G01
X4749800Y14767585D02*
G03X4749800Y14767585I-76200J0D01*
G75*
G01
X3987800Y14767585D02*
G03X3987800Y14767585I-76200J0D01*
G75*
G01
X6624599Y14386611D02*
G03X6624599Y14386611I-299999J0D01*
G75*
G01
X6654800Y14386611D02*
G03X6654800Y14386611I-330200J0D01*
G75*
G01
X6781800Y14005611D02*
G03X6781800Y14005611I-76200J0D01*
G75*
G01
X6019800Y14005611D02*
G03X6019800Y14005611I-76200J0D01*
G75*
G01
X6781800Y14767611D02*
G03X6781800Y14767611I-76200J0D01*
G75*
G01
X6019800Y14767611D02*
G03X6019800Y14767611I-76200J0D01*
G75*
G01
X8643899Y14386585D02*
G03X8643899Y14386585I-299999J0D01*
G75*
G01
X8674100Y14386585D02*
G03X8674100Y14386585I-330200J0D01*
G75*
G01
X8801100Y14005585D02*
G03X8801100Y14005585I-76200J0D01*
G75*
G01
X8039100Y14005585D02*
G03X8039100Y14005585I-76200J0D01*
G75*
G01
X8801100Y14767585D02*
G03X8801100Y14767585I-76200J0D01*
G75*
G01
X8039100Y14767585D02*
G03X8039100Y14767585I-76200J0D01*
M02*
